<?xml version="1.0" encoding="utf-8"?>
<svg xmlns="http://www.w3.org/2000/svg" xmlns:xlink="http://www.w3.org/1999/xlink" width="600" height="400" viewBox="0 0 2400 1600">
<defs>
  <clipPath id="clip540">
    <rect x="0" y="0" width="2400" height="1600"/>
  </clipPath>
</defs>
<path clip-path="url(#clip540)" d="
M0 1600 L2400 1600 L2400 0 L0 0  Z
  " fill="#ffffff" fill-rule="evenodd" fill-opacity="1"/>
<defs>
  <clipPath id="clip541">
    <rect x="480" y="0" width="1681" height="1600"/>
  </clipPath>
</defs>
<path clip-path="url(#clip540)" d="
M202.227 1423.18 L2352.76 1423.18 L2352.76 123.472 L202.227 123.472  Z
  " fill="#ffffff" fill-rule="evenodd" fill-opacity="1"/>
<defs>
  <clipPath id="clip542">
    <rect x="202" y="123" width="2152" height="1301"/>
  </clipPath>
</defs>
<polyline clip-path="url(#clip542)" style="stroke:#000000; stroke-linecap:butt; stroke-linejoin:round; stroke-width:2; stroke-opacity:0.1; fill:none" points="
  259.026,1423.18 259.026,123.472 
  "/>
<polyline clip-path="url(#clip542)" style="stroke:#000000; stroke-linecap:butt; stroke-linejoin:round; stroke-width:2; stroke-opacity:0.1; fill:none" points="
  665.599,1423.18 665.599,123.472 
  "/>
<polyline clip-path="url(#clip542)" style="stroke:#000000; stroke-linecap:butt; stroke-linejoin:round; stroke-width:2; stroke-opacity:0.1; fill:none" points="
  1072.17,1423.18 1072.17,123.472 
  "/>
<polyline clip-path="url(#clip542)" style="stroke:#000000; stroke-linecap:butt; stroke-linejoin:round; stroke-width:2; stroke-opacity:0.1; fill:none" points="
  1478.75,1423.18 1478.75,123.472 
  "/>
<polyline clip-path="url(#clip542)" style="stroke:#000000; stroke-linecap:butt; stroke-linejoin:round; stroke-width:2; stroke-opacity:0.1; fill:none" points="
  1885.32,1423.18 1885.32,123.472 
  "/>
<polyline clip-path="url(#clip542)" style="stroke:#000000; stroke-linecap:butt; stroke-linejoin:round; stroke-width:2; stroke-opacity:0.1; fill:none" points="
  2291.89,1423.18 2291.89,123.472 
  "/>
<polyline clip-path="url(#clip540)" style="stroke:#000000; stroke-linecap:butt; stroke-linejoin:round; stroke-width:4; stroke-opacity:1; fill:none" points="
  202.227,1423.18 2352.76,1423.18 
  "/>
<polyline clip-path="url(#clip540)" style="stroke:#000000; stroke-linecap:butt; stroke-linejoin:round; stroke-width:4; stroke-opacity:1; fill:none" points="
  259.026,1423.18 259.026,1404.28 
  "/>
<polyline clip-path="url(#clip540)" style="stroke:#000000; stroke-linecap:butt; stroke-linejoin:round; stroke-width:4; stroke-opacity:1; fill:none" points="
  665.599,1423.18 665.599,1404.28 
  "/>
<polyline clip-path="url(#clip540)" style="stroke:#000000; stroke-linecap:butt; stroke-linejoin:round; stroke-width:4; stroke-opacity:1; fill:none" points="
  1072.17,1423.18 1072.17,1404.28 
  "/>
<polyline clip-path="url(#clip540)" style="stroke:#000000; stroke-linecap:butt; stroke-linejoin:round; stroke-width:4; stroke-opacity:1; fill:none" points="
  1478.75,1423.18 1478.75,1404.28 
  "/>
<polyline clip-path="url(#clip540)" style="stroke:#000000; stroke-linecap:butt; stroke-linejoin:round; stroke-width:4; stroke-opacity:1; fill:none" points="
  1885.32,1423.18 1885.32,1404.28 
  "/>
<polyline clip-path="url(#clip540)" style="stroke:#000000; stroke-linecap:butt; stroke-linejoin:round; stroke-width:4; stroke-opacity:1; fill:none" points="
  2291.89,1423.18 2291.89,1404.28 
  "/>
<path clip-path="url(#clip540)" d="M259.026 1454.1 Q255.415 1454.1 253.586 1457.66 Q251.78 1461.2 251.78 1468.33 Q251.78 1475.44 253.586 1479.01 Q255.415 1482.55 259.026 1482.55 Q262.66 1482.55 264.466 1479.01 Q266.294 1475.44 266.294 1468.33 Q266.294 1461.2 264.466 1457.66 Q262.66 1454.1 259.026 1454.1 M259.026 1450.39 Q264.836 1450.39 267.891 1455 Q270.97 1459.58 270.97 1468.33 Q270.97 1477.06 267.891 1481.67 Q264.836 1486.25 259.026 1486.25 Q253.216 1486.25 250.137 1481.67 Q247.081 1477.06 247.081 1468.33 Q247.081 1459.58 250.137 1455 Q253.216 1450.39 259.026 1450.39 Z" fill="#000000" fill-rule="evenodd" fill-opacity="1" /><path clip-path="url(#clip540)" d="M625.206 1481.64 L632.845 1481.64 L632.845 1455.28 L624.534 1456.95 L624.534 1452.69 L632.798 1451.02 L637.474 1451.02 L637.474 1481.64 L645.113 1481.64 L645.113 1485.58 L625.206 1485.58 L625.206 1481.64 Z" fill="#000000" fill-rule="evenodd" fill-opacity="1" /><path clip-path="url(#clip540)" d="M664.557 1454.1 Q660.946 1454.1 659.118 1457.66 Q657.312 1461.2 657.312 1468.33 Q657.312 1475.44 659.118 1479.01 Q660.946 1482.55 664.557 1482.55 Q668.192 1482.55 669.997 1479.01 Q671.826 1475.44 671.826 1468.33 Q671.826 1461.2 669.997 1457.66 Q668.192 1454.1 664.557 1454.1 M664.557 1450.39 Q670.367 1450.39 673.423 1455 Q676.502 1459.58 676.502 1468.33 Q676.502 1477.06 673.423 1481.67 Q670.367 1486.25 664.557 1486.25 Q658.747 1486.25 655.668 1481.67 Q652.613 1477.06 652.613 1468.33 Q652.613 1459.58 655.668 1455 Q658.747 1450.39 664.557 1450.39 Z" fill="#000000" fill-rule="evenodd" fill-opacity="1" /><path clip-path="url(#clip540)" d="M694.719 1454.1 Q691.108 1454.1 689.279 1457.66 Q687.474 1461.2 687.474 1468.33 Q687.474 1475.44 689.279 1479.01 Q691.108 1482.55 694.719 1482.55 Q698.353 1482.55 700.159 1479.01 Q701.988 1475.44 701.988 1468.33 Q701.988 1461.2 700.159 1457.66 Q698.353 1454.1 694.719 1454.1 M694.719 1450.39 Q700.529 1450.39 703.585 1455 Q706.664 1459.58 706.664 1468.33 Q706.664 1477.06 703.585 1481.67 Q700.529 1486.25 694.719 1486.25 Q688.909 1486.25 685.83 1481.67 Q682.775 1477.06 682.775 1468.33 Q682.775 1459.58 685.83 1455 Q688.909 1450.39 694.719 1450.39 Z" fill="#000000" fill-rule="evenodd" fill-opacity="1" /><path clip-path="url(#clip540)" d="M1035.86 1481.64 L1052.18 1481.64 L1052.18 1485.58 L1030.24 1485.58 L1030.24 1481.64 Q1032.9 1478.89 1037.48 1474.26 Q1042.09 1469.61 1043.27 1468.27 Q1045.52 1465.74 1046.4 1464.01 Q1047.3 1462.25 1047.3 1460.56 Q1047.3 1457.8 1045.36 1456.07 Q1043.43 1454.33 1040.33 1454.33 Q1038.13 1454.33 1035.68 1455.09 Q1033.25 1455.86 1030.47 1457.41 L1030.47 1452.69 Q1033.3 1451.55 1035.75 1450.97 Q1038.2 1450.39 1040.24 1450.39 Q1045.61 1450.39 1048.8 1453.08 Q1052 1455.77 1052 1460.26 Q1052 1462.39 1051.19 1464.31 Q1050.4 1466.2 1048.3 1468.8 Q1047.72 1469.47 1044.61 1472.69 Q1041.51 1475.88 1035.86 1481.64 Z" fill="#000000" fill-rule="evenodd" fill-opacity="1" /><path clip-path="url(#clip540)" d="M1072 1454.1 Q1068.39 1454.1 1066.56 1457.66 Q1064.75 1461.2 1064.75 1468.33 Q1064.75 1475.44 1066.56 1479.01 Q1068.39 1482.55 1072 1482.55 Q1075.63 1482.55 1077.44 1479.01 Q1079.27 1475.44 1079.27 1468.33 Q1079.27 1461.2 1077.44 1457.66 Q1075.63 1454.1 1072 1454.1 M1072 1450.39 Q1077.81 1450.39 1080.86 1455 Q1083.94 1459.58 1083.94 1468.33 Q1083.94 1477.06 1080.86 1481.67 Q1077.81 1486.25 1072 1486.25 Q1066.19 1486.25 1063.11 1481.67 Q1060.05 1477.06 1060.05 1468.33 Q1060.05 1459.58 1063.11 1455 Q1066.19 1450.39 1072 1450.39 Z" fill="#000000" fill-rule="evenodd" fill-opacity="1" /><path clip-path="url(#clip540)" d="M1102.16 1454.1 Q1098.55 1454.1 1096.72 1457.66 Q1094.92 1461.2 1094.92 1468.33 Q1094.92 1475.44 1096.72 1479.01 Q1098.55 1482.55 1102.16 1482.55 Q1105.79 1482.55 1107.6 1479.01 Q1109.43 1475.44 1109.43 1468.33 Q1109.43 1461.2 1107.6 1457.66 Q1105.79 1454.1 1102.16 1454.1 M1102.16 1450.39 Q1107.97 1450.39 1111.03 1455 Q1114.1 1459.58 1114.1 1468.33 Q1114.1 1477.06 1111.03 1481.67 Q1107.97 1486.25 1102.16 1486.25 Q1096.35 1486.25 1093.27 1481.67 Q1090.22 1477.06 1090.22 1468.33 Q1090.22 1459.58 1093.27 1455 Q1096.35 1450.39 1102.16 1450.39 Z" fill="#000000" fill-rule="evenodd" fill-opacity="1" /><path clip-path="url(#clip540)" d="M1452.51 1466.95 Q1455.86 1467.66 1457.74 1469.93 Q1459.64 1472.2 1459.64 1475.53 Q1459.64 1480.65 1456.12 1483.45 Q1452.6 1486.25 1446.12 1486.25 Q1443.94 1486.25 1441.63 1485.81 Q1439.34 1485.39 1436.88 1484.54 L1436.88 1480.02 Q1438.83 1481.16 1441.14 1481.74 Q1443.46 1482.32 1445.98 1482.32 Q1450.38 1482.32 1452.67 1480.58 Q1454.98 1478.84 1454.98 1475.53 Q1454.98 1472.48 1452.83 1470.77 Q1450.7 1469.03 1446.88 1469.03 L1442.85 1469.03 L1442.85 1465.19 L1447.07 1465.19 Q1450.52 1465.19 1452.35 1463.82 Q1454.17 1462.43 1454.17 1459.84 Q1454.17 1457.18 1452.28 1455.77 Q1450.4 1454.33 1446.88 1454.33 Q1444.96 1454.33 1442.76 1454.75 Q1440.56 1455.16 1437.92 1456.04 L1437.92 1451.88 Q1440.59 1451.14 1442.9 1450.77 Q1445.24 1450.39 1447.3 1450.39 Q1452.62 1450.39 1455.72 1452.83 Q1458.83 1455.23 1458.83 1459.35 Q1458.83 1462.22 1457.18 1464.21 Q1455.54 1466.18 1452.51 1466.95 Z" fill="#000000" fill-rule="evenodd" fill-opacity="1" /><path clip-path="url(#clip540)" d="M1478.5 1454.1 Q1474.89 1454.1 1473.06 1457.66 Q1471.26 1461.2 1471.26 1468.33 Q1471.26 1475.44 1473.06 1479.01 Q1474.89 1482.55 1478.5 1482.55 Q1482.14 1482.55 1483.94 1479.01 Q1485.77 1475.44 1485.77 1468.33 Q1485.77 1461.2 1483.94 1457.66 Q1482.14 1454.1 1478.5 1454.1 M1478.5 1450.39 Q1484.31 1450.39 1487.37 1455 Q1490.45 1459.58 1490.45 1468.33 Q1490.45 1477.06 1487.37 1481.67 Q1484.31 1486.25 1478.5 1486.25 Q1472.69 1486.25 1469.61 1481.67 Q1466.56 1477.06 1466.56 1468.33 Q1466.56 1459.58 1469.61 1455 Q1472.69 1450.39 1478.5 1450.39 Z" fill="#000000" fill-rule="evenodd" fill-opacity="1" /><path clip-path="url(#clip540)" d="M1508.66 1454.1 Q1505.05 1454.1 1503.22 1457.66 Q1501.42 1461.2 1501.42 1468.33 Q1501.42 1475.44 1503.22 1479.01 Q1505.05 1482.55 1508.66 1482.55 Q1512.3 1482.55 1514.1 1479.01 Q1515.93 1475.44 1515.93 1468.33 Q1515.93 1461.2 1514.1 1457.66 Q1512.3 1454.1 1508.66 1454.1 M1508.66 1450.39 Q1514.47 1450.39 1517.53 1455 Q1520.61 1459.58 1520.61 1468.33 Q1520.61 1477.06 1517.53 1481.67 Q1514.47 1486.25 1508.66 1486.25 Q1502.85 1486.25 1499.78 1481.67 Q1496.72 1477.06 1496.72 1468.33 Q1496.72 1459.58 1499.78 1455 Q1502.85 1450.39 1508.66 1450.39 Z" fill="#000000" fill-rule="evenodd" fill-opacity="1" /><path clip-path="url(#clip540)" d="M1858.41 1455.09 L1846.6 1473.54 L1858.41 1473.54 L1858.41 1455.09 M1857.18 1451.02 L1863.06 1451.02 L1863.06 1473.54 L1867.99 1473.54 L1867.99 1477.43 L1863.06 1477.43 L1863.06 1485.58 L1858.41 1485.58 L1858.41 1477.43 L1842.81 1477.43 L1842.81 1472.92 L1857.18 1451.02 Z" fill="#000000" fill-rule="evenodd" fill-opacity="1" /><path clip-path="url(#clip540)" d="M1885.72 1454.1 Q1882.11 1454.1 1880.28 1457.66 Q1878.48 1461.2 1878.48 1468.33 Q1878.48 1475.44 1880.28 1479.01 Q1882.11 1482.55 1885.72 1482.55 Q1889.36 1482.55 1891.16 1479.01 Q1892.99 1475.44 1892.99 1468.33 Q1892.99 1461.2 1891.16 1457.66 Q1889.36 1454.1 1885.72 1454.1 M1885.72 1450.39 Q1891.53 1450.39 1894.59 1455 Q1897.67 1459.58 1897.67 1468.33 Q1897.67 1477.06 1894.59 1481.67 Q1891.53 1486.25 1885.72 1486.25 Q1879.91 1486.25 1876.83 1481.67 Q1873.78 1477.06 1873.78 1468.33 Q1873.78 1459.58 1876.83 1455 Q1879.91 1450.39 1885.72 1450.39 Z" fill="#000000" fill-rule="evenodd" fill-opacity="1" /><path clip-path="url(#clip540)" d="M1915.89 1454.1 Q1912.27 1454.1 1910.45 1457.66 Q1908.64 1461.2 1908.64 1468.33 Q1908.64 1475.44 1910.45 1479.01 Q1912.27 1482.55 1915.89 1482.55 Q1919.52 1482.55 1921.33 1479.01 Q1923.15 1475.44 1923.15 1468.33 Q1923.15 1461.2 1921.33 1457.66 Q1919.52 1454.1 1915.89 1454.1 M1915.89 1450.39 Q1921.7 1450.39 1924.75 1455 Q1927.83 1459.58 1927.83 1468.33 Q1927.83 1477.06 1924.75 1481.67 Q1921.7 1486.25 1915.89 1486.25 Q1910.08 1486.25 1907 1481.67 Q1903.94 1477.06 1903.94 1468.33 Q1903.94 1459.58 1907 1455 Q1910.08 1450.39 1915.89 1450.39 Z" fill="#000000" fill-rule="evenodd" fill-opacity="1" /><path clip-path="url(#clip540)" d="M2251.51 1451.02 L2269.87 1451.02 L2269.87 1454.96 L2255.79 1454.96 L2255.79 1463.43 Q2256.81 1463.08 2257.83 1462.92 Q2258.85 1462.73 2259.87 1462.73 Q2265.65 1462.73 2269.03 1465.9 Q2272.41 1469.08 2272.41 1474.49 Q2272.41 1480.07 2268.94 1483.17 Q2265.47 1486.25 2259.15 1486.25 Q2256.97 1486.25 2254.7 1485.88 Q2252.46 1485.51 2250.05 1484.77 L2250.05 1480.07 Q2252.14 1481.2 2254.36 1481.76 Q2256.58 1482.32 2259.06 1482.32 Q2263.06 1482.32 2265.4 1480.21 Q2267.74 1478.1 2267.74 1474.49 Q2267.74 1470.88 2265.4 1468.77 Q2263.06 1466.67 2259.06 1466.67 Q2257.18 1466.67 2255.31 1467.08 Q2253.45 1467.5 2251.51 1468.38 L2251.51 1451.02 Z" fill="#000000" fill-rule="evenodd" fill-opacity="1" /><path clip-path="url(#clip540)" d="M2291.63 1454.1 Q2288.01 1454.1 2286.19 1457.66 Q2284.38 1461.2 2284.38 1468.33 Q2284.38 1475.44 2286.19 1479.01 Q2288.01 1482.55 2291.63 1482.55 Q2295.26 1482.55 2297.07 1479.01 Q2298.89 1475.44 2298.89 1468.33 Q2298.89 1461.2 2297.07 1457.66 Q2295.26 1454.1 2291.63 1454.1 M2291.63 1450.39 Q2297.44 1450.39 2300.49 1455 Q2303.57 1459.58 2303.57 1468.33 Q2303.57 1477.06 2300.49 1481.67 Q2297.44 1486.25 2291.63 1486.25 Q2285.82 1486.25 2282.74 1481.67 Q2279.68 1477.06 2279.68 1468.33 Q2279.68 1459.58 2282.74 1455 Q2285.82 1450.39 2291.63 1450.39 Z" fill="#000000" fill-rule="evenodd" fill-opacity="1" /><path clip-path="url(#clip540)" d="M2321.79 1454.1 Q2318.18 1454.1 2316.35 1457.66 Q2314.54 1461.2 2314.54 1468.33 Q2314.54 1475.44 2316.35 1479.01 Q2318.18 1482.55 2321.79 1482.55 Q2325.42 1482.55 2327.23 1479.01 Q2329.06 1475.44 2329.06 1468.33 Q2329.06 1461.2 2327.23 1457.66 Q2325.42 1454.1 2321.79 1454.1 M2321.79 1450.39 Q2327.6 1450.39 2330.65 1455 Q2333.73 1459.58 2333.73 1468.33 Q2333.73 1477.06 2330.65 1481.67 Q2327.6 1486.25 2321.79 1486.25 Q2315.98 1486.25 2312.9 1481.67 Q2309.84 1477.06 2309.84 1468.33 Q2309.84 1459.58 2312.9 1455 Q2315.98 1450.39 2321.79 1450.39 Z" fill="#000000" fill-rule="evenodd" fill-opacity="1" /><path clip-path="url(#clip540)" d="M1002.95 1520.52 L1043.15 1520.52 L1043.15 1525.93 L1026.28 1525.93 L1026.28 1568.04 L1019.82 1568.04 L1019.82 1525.93 L1002.95 1525.93 L1002.95 1520.52 Z" fill="#000000" fill-rule="evenodd" fill-opacity="1" /><path clip-path="url(#clip540)" d="M1060.18 1537.87 Q1059.2 1537.3 1058.02 1537.04 Q1056.87 1536.76 1055.47 1536.76 Q1050.51 1536.76 1047.83 1540 Q1045.19 1543.22 1045.19 1549.27 L1045.19 1568.04 L1039.3 1568.04 L1039.3 1532.4 L1045.19 1532.4 L1045.19 1537.93 Q1047.04 1534.69 1050 1533.13 Q1052.96 1531.54 1057.19 1531.54 Q1057.8 1531.54 1058.53 1531.63 Q1059.26 1531.7 1060.15 1531.85 L1060.18 1537.87 Z" fill="#000000" fill-rule="evenodd" fill-opacity="1" /><path clip-path="url(#clip540)" d="M1082.53 1550.12 Q1075.43 1550.12 1072.69 1551.75 Q1069.95 1553.37 1069.95 1557.29 Q1069.95 1560.4 1071.99 1562.25 Q1074.06 1564.07 1077.59 1564.07 Q1082.46 1564.07 1085.39 1560.63 Q1088.35 1557.16 1088.35 1551.43 L1088.35 1550.12 L1082.53 1550.12 M1094.21 1547.71 L1094.21 1568.04 L1088.35 1568.04 L1088.35 1562.63 Q1086.35 1565.88 1083.35 1567.44 Q1080.36 1568.97 1076.03 1568.97 Q1070.56 1568.97 1067.31 1565.91 Q1064.1 1562.82 1064.1 1557.67 Q1064.1 1551.65 1068.11 1548.6 Q1072.15 1545.54 1080.14 1545.54 L1088.35 1545.54 L1088.35 1544.97 Q1088.35 1540.93 1085.68 1538.73 Q1083.04 1536.5 1078.23 1536.5 Q1075.17 1536.5 1072.28 1537.23 Q1069.38 1537.97 1066.71 1539.43 L1066.71 1534.02 Q1069.92 1532.78 1072.95 1532.17 Q1075.97 1531.54 1078.83 1531.54 Q1086.57 1531.54 1090.39 1535.55 Q1094.21 1539.56 1094.21 1547.71 Z" fill="#000000" fill-rule="evenodd" fill-opacity="1" /><path clip-path="url(#clip540)" d="M1106.27 1532.4 L1112.13 1532.4 L1112.13 1568.04 L1106.27 1568.04 L1106.27 1532.4 M1106.27 1518.52 L1112.13 1518.52 L1112.13 1525.93 L1106.27 1525.93 L1106.27 1518.52 Z" fill="#000000" fill-rule="evenodd" fill-opacity="1" /><path clip-path="url(#clip540)" d="M1154.01 1546.53 L1154.01 1568.04 L1148.16 1568.04 L1148.16 1546.72 Q1148.16 1541.66 1146.18 1539.14 Q1144.21 1536.63 1140.26 1536.63 Q1135.52 1536.63 1132.78 1539.65 Q1130.05 1542.68 1130.05 1547.9 L1130.05 1568.04 L1124.16 1568.04 L1124.16 1532.4 L1130.05 1532.4 L1130.05 1537.93 Q1132.15 1534.72 1134.98 1533.13 Q1137.84 1531.54 1141.57 1531.54 Q1147.71 1531.54 1150.86 1535.36 Q1154.01 1539.14 1154.01 1546.53 Z" fill="#000000" fill-rule="evenodd" fill-opacity="1" /><path clip-path="url(#clip540)" d="M1165.69 1532.4 L1171.55 1532.4 L1171.55 1568.04 L1165.69 1568.04 L1165.69 1532.4 M1165.69 1518.52 L1171.55 1518.52 L1171.55 1525.93 L1165.69 1525.93 L1165.69 1518.52 Z" fill="#000000" fill-rule="evenodd" fill-opacity="1" /><path clip-path="url(#clip540)" d="M1213.44 1546.53 L1213.44 1568.04 L1207.58 1568.04 L1207.58 1546.72 Q1207.58 1541.66 1205.61 1539.14 Q1203.63 1536.63 1199.69 1536.63 Q1194.94 1536.63 1192.21 1539.65 Q1189.47 1542.68 1189.47 1547.9 L1189.47 1568.04 L1183.58 1568.04 L1183.58 1532.4 L1189.47 1532.4 L1189.47 1537.93 Q1191.57 1534.72 1194.4 1533.13 Q1197.27 1531.54 1200.99 1531.54 Q1207.13 1531.54 1210.29 1535.36 Q1213.44 1539.14 1213.44 1546.53 Z" fill="#000000" fill-rule="evenodd" fill-opacity="1" /><path clip-path="url(#clip540)" d="M1248.58 1549.81 Q1248.58 1543.44 1245.93 1539.94 Q1243.32 1536.44 1238.58 1536.44 Q1233.87 1536.44 1231.23 1539.94 Q1228.62 1543.44 1228.62 1549.81 Q1228.62 1556.14 1231.23 1559.64 Q1233.87 1563.14 1238.58 1563.14 Q1243.32 1563.14 1245.93 1559.64 Q1248.58 1556.14 1248.58 1549.81 M1254.43 1563.62 Q1254.43 1572.72 1250.39 1577.15 Q1246.35 1581.6 1238.01 1581.6 Q1234.92 1581.6 1232.18 1581.13 Q1229.45 1580.68 1226.87 1579.72 L1226.87 1574.03 Q1229.45 1575.43 1231.96 1576.1 Q1234.48 1576.76 1237.09 1576.76 Q1242.85 1576.76 1245.71 1573.74 Q1248.58 1570.75 1248.58 1564.67 L1248.58 1561.77 Q1246.76 1564.92 1243.93 1566.48 Q1241.1 1568.04 1237.15 1568.04 Q1230.59 1568.04 1226.58 1563.05 Q1222.57 1558.05 1222.57 1549.81 Q1222.57 1541.53 1226.58 1536.53 Q1230.59 1531.54 1237.15 1531.54 Q1241.1 1531.54 1243.93 1533.1 Q1246.76 1534.66 1248.58 1537.81 L1248.58 1532.4 L1254.43 1532.4 L1254.43 1563.62 Z" fill="#000000" fill-rule="evenodd" fill-opacity="1" /><path clip-path="url(#clip540)" d="M1287.47 1520.52 L1293.9 1520.52 L1293.9 1568.04 L1287.47 1568.04 L1287.47 1520.52 Z" fill="#000000" fill-rule="evenodd" fill-opacity="1" /><path clip-path="url(#clip540)" d="M1312.23 1522.27 L1312.23 1532.4 L1324.3 1532.4 L1324.3 1536.95 L1312.23 1536.95 L1312.23 1556.3 Q1312.23 1560.66 1313.41 1561.9 Q1314.62 1563.14 1318.28 1563.14 L1324.3 1563.14 L1324.3 1568.04 L1318.28 1568.04 Q1311.5 1568.04 1308.92 1565.53 Q1306.34 1562.98 1306.34 1556.3 L1306.34 1536.95 L1302.05 1536.95 L1302.05 1532.4 L1306.34 1532.4 L1306.34 1522.27 L1312.23 1522.27 Z" fill="#000000" fill-rule="evenodd" fill-opacity="1" /><path clip-path="url(#clip540)" d="M1362.49 1548.76 L1362.49 1551.62 L1335.56 1551.62 Q1335.94 1557.67 1339.19 1560.85 Q1342.47 1564 1348.29 1564 Q1351.67 1564 1354.82 1563.17 Q1358 1562.35 1361.12 1560.69 L1361.12 1566.23 Q1357.97 1567.57 1354.66 1568.27 Q1351.35 1568.97 1347.94 1568.97 Q1339.41 1568.97 1334.42 1564 Q1329.45 1559.04 1329.45 1550.57 Q1329.45 1541.82 1334.16 1536.69 Q1338.9 1531.54 1346.93 1531.54 Q1354.12 1531.54 1358.29 1536.18 Q1362.49 1540.8 1362.49 1548.76 M1356.63 1547.04 Q1356.57 1542.23 1353.93 1539.37 Q1351.32 1536.5 1346.99 1536.5 Q1342.09 1536.5 1339.13 1539.27 Q1336.2 1542.04 1335.75 1547.07 L1356.63 1547.04 Z" fill="#000000" fill-rule="evenodd" fill-opacity="1" /><path clip-path="url(#clip540)" d="M1392.76 1537.87 Q1391.77 1537.3 1390.59 1537.04 Q1389.45 1536.76 1388.05 1536.76 Q1383.08 1536.76 1380.41 1540 Q1377.77 1543.22 1377.77 1549.27 L1377.77 1568.04 L1371.88 1568.04 L1371.88 1532.4 L1377.77 1532.4 L1377.77 1537.93 Q1379.61 1534.69 1382.57 1533.13 Q1385.53 1531.54 1389.77 1531.54 Q1390.37 1531.54 1391.1 1531.63 Q1391.84 1531.7 1392.73 1531.85 L1392.76 1537.87 Z" fill="#000000" fill-rule="evenodd" fill-opacity="1" /><path clip-path="url(#clip540)" d="M1415.1 1550.12 Q1408 1550.12 1405.27 1551.75 Q1402.53 1553.37 1402.53 1557.29 Q1402.53 1560.4 1404.57 1562.25 Q1406.64 1564.07 1410.17 1564.07 Q1415.04 1564.07 1417.97 1560.63 Q1420.93 1557.16 1420.93 1551.43 L1420.93 1550.12 L1415.1 1550.12 M1426.78 1547.71 L1426.78 1568.04 L1420.93 1568.04 L1420.93 1562.63 Q1418.92 1565.88 1415.93 1567.44 Q1412.94 1568.97 1408.61 1568.97 Q1403.13 1568.97 1399.89 1565.91 Q1396.67 1562.82 1396.67 1557.67 Q1396.67 1551.65 1400.68 1548.6 Q1404.73 1545.54 1412.72 1545.54 L1420.93 1545.54 L1420.93 1544.97 Q1420.93 1540.93 1418.25 1538.73 Q1415.61 1536.5 1410.81 1536.5 Q1407.75 1536.5 1404.85 1537.23 Q1401.96 1537.97 1399.28 1539.43 L1399.28 1534.02 Q1402.5 1532.78 1405.52 1532.17 Q1408.55 1531.54 1411.41 1531.54 Q1419.14 1531.54 1422.96 1535.55 Q1426.78 1539.56 1426.78 1547.71 Z" fill="#000000" fill-rule="evenodd" fill-opacity="1" /><path clip-path="url(#clip540)" d="M1444.64 1522.27 L1444.64 1532.4 L1456.7 1532.4 L1456.7 1536.95 L1444.64 1536.95 L1444.64 1556.3 Q1444.64 1560.66 1445.82 1561.9 Q1447.03 1563.14 1450.69 1563.14 L1456.7 1563.14 L1456.7 1568.04 L1450.69 1568.04 Q1443.91 1568.04 1441.33 1565.53 Q1438.75 1562.98 1438.75 1556.3 L1438.75 1536.95 L1434.45 1536.95 L1434.45 1532.4 L1438.75 1532.4 L1438.75 1522.27 L1444.64 1522.27 Z" fill="#000000" fill-rule="evenodd" fill-opacity="1" /><path clip-path="url(#clip540)" d="M1464.4 1532.4 L1470.26 1532.4 L1470.26 1568.04 L1464.4 1568.04 L1464.4 1532.4 M1464.4 1518.52 L1470.26 1518.52 L1470.26 1525.93 L1464.4 1525.93 L1464.4 1518.52 Z" fill="#000000" fill-rule="evenodd" fill-opacity="1" /><path clip-path="url(#clip540)" d="M1496.33 1536.5 Q1491.62 1536.5 1488.88 1540.19 Q1486.14 1543.85 1486.14 1550.25 Q1486.14 1556.65 1488.85 1560.34 Q1491.59 1564 1496.33 1564 Q1501.01 1564 1503.74 1560.31 Q1506.48 1556.62 1506.48 1550.25 Q1506.48 1543.92 1503.74 1540.23 Q1501.01 1536.5 1496.33 1536.5 M1496.33 1531.54 Q1503.97 1531.54 1508.33 1536.5 Q1512.69 1541.47 1512.69 1550.25 Q1512.69 1559 1508.33 1564 Q1503.97 1568.97 1496.33 1568.97 Q1488.66 1568.97 1484.3 1564 Q1479.97 1559 1479.97 1550.25 Q1479.97 1541.47 1484.3 1536.5 Q1488.66 1531.54 1496.33 1531.54 Z" fill="#000000" fill-rule="evenodd" fill-opacity="1" /><path clip-path="url(#clip540)" d="M1552.03 1546.53 L1552.03 1568.04 L1546.17 1568.04 L1546.17 1546.72 Q1546.17 1541.66 1544.2 1539.14 Q1542.23 1536.63 1538.28 1536.63 Q1533.54 1536.63 1530.8 1539.65 Q1528.06 1542.68 1528.06 1547.9 L1528.06 1568.04 L1522.17 1568.04 L1522.17 1532.4 L1528.06 1532.4 L1528.06 1537.93 Q1530.16 1534.72 1533 1533.13 Q1535.86 1531.54 1539.58 1531.54 Q1545.73 1531.54 1548.88 1535.36 Q1552.03 1539.14 1552.03 1546.53 Z" fill="#000000" fill-rule="evenodd" fill-opacity="1" /><polyline clip-path="url(#clip542)" style="stroke:#000000; stroke-linecap:butt; stroke-linejoin:round; stroke-width:2; stroke-opacity:0.1; fill:none" points="
  202.227,1289.99 2352.76,1289.99 
  "/>
<polyline clip-path="url(#clip542)" style="stroke:#000000; stroke-linecap:butt; stroke-linejoin:round; stroke-width:2; stroke-opacity:0.1; fill:none" points="
  202.227,1035.21 2352.76,1035.21 
  "/>
<polyline clip-path="url(#clip542)" style="stroke:#000000; stroke-linecap:butt; stroke-linejoin:round; stroke-width:2; stroke-opacity:0.1; fill:none" points="
  202.227,780.437 2352.76,780.437 
  "/>
<polyline clip-path="url(#clip542)" style="stroke:#000000; stroke-linecap:butt; stroke-linejoin:round; stroke-width:2; stroke-opacity:0.1; fill:none" points="
  202.227,525.659 2352.76,525.659 
  "/>
<polyline clip-path="url(#clip542)" style="stroke:#000000; stroke-linecap:butt; stroke-linejoin:round; stroke-width:2; stroke-opacity:0.1; fill:none" points="
  202.227,270.881 2352.76,270.881 
  "/>
<polyline clip-path="url(#clip540)" style="stroke:#000000; stroke-linecap:butt; stroke-linejoin:round; stroke-width:4; stroke-opacity:1; fill:none" points="
  202.227,1423.18 202.227,123.472 
  "/>
<polyline clip-path="url(#clip540)" style="stroke:#000000; stroke-linecap:butt; stroke-linejoin:round; stroke-width:4; stroke-opacity:1; fill:none" points="
  202.227,1289.99 221.125,1289.99 
  "/>
<polyline clip-path="url(#clip540)" style="stroke:#000000; stroke-linecap:butt; stroke-linejoin:round; stroke-width:4; stroke-opacity:1; fill:none" points="
  202.227,1035.21 221.125,1035.21 
  "/>
<polyline clip-path="url(#clip540)" style="stroke:#000000; stroke-linecap:butt; stroke-linejoin:round; stroke-width:4; stroke-opacity:1; fill:none" points="
  202.227,780.437 221.125,780.437 
  "/>
<polyline clip-path="url(#clip540)" style="stroke:#000000; stroke-linecap:butt; stroke-linejoin:round; stroke-width:4; stroke-opacity:1; fill:none" points="
  202.227,525.659 221.125,525.659 
  "/>
<polyline clip-path="url(#clip540)" style="stroke:#000000; stroke-linecap:butt; stroke-linejoin:round; stroke-width:4; stroke-opacity:1; fill:none" points="
  202.227,270.881 221.125,270.881 
  "/>
<path clip-path="url(#clip540)" d="M156.644 1276.79 L144.839 1295.24 L156.644 1295.24 L156.644 1276.79 M155.417 1272.71 L161.297 1272.71 L161.297 1295.24 L166.227 1295.24 L166.227 1299.12 L161.297 1299.12 L161.297 1307.27 L156.644 1307.27 L156.644 1299.12 L141.042 1299.12 L141.042 1294.61 L155.417 1272.71 Z" fill="#000000" fill-rule="evenodd" fill-opacity="1" /><path clip-path="url(#clip540)" d="M154.7 1033.35 Q151.552 1033.35 149.7 1035.5 Q147.871 1037.66 147.871 1041.41 Q147.871 1045.13 149.7 1047.31 Q151.552 1049.46 154.7 1049.46 Q157.848 1049.46 159.677 1047.31 Q161.528 1045.13 161.528 1041.41 Q161.528 1037.66 159.677 1035.5 Q157.848 1033.35 154.7 1033.35 M163.982 1018.7 L163.982 1022.96 Q162.223 1022.12 160.417 1021.68 Q158.635 1021.24 156.876 1021.24 Q152.246 1021.24 149.792 1024.37 Q147.362 1027.49 147.015 1033.81 Q148.38 1031.8 150.441 1030.74 Q152.501 1029.65 154.978 1029.65 Q160.186 1029.65 163.195 1032.82 Q166.227 1035.97 166.227 1041.41 Q166.227 1046.73 163.079 1049.95 Q159.931 1053.17 154.7 1053.17 Q148.704 1053.17 145.533 1048.58 Q142.362 1043.98 142.362 1035.25 Q142.362 1027.05 146.251 1022.19 Q150.14 1017.31 156.69 1017.31 Q158.45 1017.31 160.232 1017.66 Q162.038 1018 163.982 1018.7 Z" fill="#000000" fill-rule="evenodd" fill-opacity="1" /><path clip-path="url(#clip540)" d="M154.376 781.305 Q151.042 781.305 149.121 783.087 Q147.223 784.869 147.223 787.994 Q147.223 791.119 149.121 792.902 Q151.042 794.684 154.376 794.684 Q157.709 794.684 159.63 792.902 Q161.552 791.096 161.552 787.994 Q161.552 784.869 159.63 783.087 Q157.732 781.305 154.376 781.305 M149.7 779.314 Q146.691 778.573 145.001 776.513 Q143.334 774.453 143.334 771.49 Q143.334 767.346 146.274 764.939 Q149.237 762.532 154.376 762.532 Q159.538 762.532 162.477 764.939 Q165.417 767.346 165.417 771.49 Q165.417 774.453 163.727 776.513 Q162.061 778.573 159.075 779.314 Q162.454 780.101 164.329 782.393 Q166.227 784.684 166.227 787.994 Q166.227 793.017 163.149 795.703 Q160.093 798.388 154.376 798.388 Q148.658 798.388 145.579 795.703 Q142.524 793.017 142.524 787.994 Q142.524 784.684 144.422 782.393 Q146.32 780.101 149.7 779.314 M147.987 771.93 Q147.987 774.615 149.653 776.119 Q151.343 777.624 154.376 777.624 Q157.385 777.624 159.075 776.119 Q160.788 774.615 160.788 771.93 Q160.788 769.244 159.075 767.74 Q157.385 766.235 154.376 766.235 Q151.343 766.235 149.653 767.74 Q147.987 769.244 147.987 771.93 Z" fill="#000000" fill-rule="evenodd" fill-opacity="1" /><path clip-path="url(#clip540)" d="M114.931 539.004 L122.57 539.004 L122.57 512.638 L114.26 514.305 L114.26 510.045 L122.524 508.379 L127.2 508.379 L127.2 539.004 L134.839 539.004 L134.839 542.939 L114.931 542.939 L114.931 539.004 Z" fill="#000000" fill-rule="evenodd" fill-opacity="1" /><path clip-path="url(#clip540)" d="M154.283 511.457 Q150.672 511.457 148.843 515.022 Q147.038 518.564 147.038 525.693 Q147.038 532.8 148.843 536.365 Q150.672 539.906 154.283 539.906 Q157.917 539.906 159.723 536.365 Q161.552 532.8 161.552 525.693 Q161.552 518.564 159.723 515.022 Q157.917 511.457 154.283 511.457 M154.283 507.754 Q160.093 507.754 163.149 512.36 Q166.227 516.944 166.227 525.693 Q166.227 534.42 163.149 539.027 Q160.093 543.61 154.283 543.61 Q148.473 543.61 145.394 539.027 Q142.339 534.42 142.339 525.693 Q142.339 516.944 145.394 512.36 Q148.473 507.754 154.283 507.754 Z" fill="#000000" fill-rule="evenodd" fill-opacity="1" /><path clip-path="url(#clip540)" d="M116.529 284.226 L124.168 284.226 L124.168 257.86 L115.857 259.527 L115.857 255.268 L124.121 253.601 L128.797 253.601 L128.797 284.226 L136.436 284.226 L136.436 288.161 L116.529 288.161 L116.529 284.226 Z" fill="#000000" fill-rule="evenodd" fill-opacity="1" /><path clip-path="url(#clip540)" d="M149.908 284.226 L166.227 284.226 L166.227 288.161 L144.283 288.161 L144.283 284.226 Q146.945 281.471 151.528 276.842 Q156.135 272.189 157.315 270.846 Q159.561 268.323 160.44 266.587 Q161.343 264.828 161.343 263.138 Q161.343 260.383 159.399 258.647 Q157.478 256.911 154.376 256.911 Q152.177 256.911 149.723 257.675 Q147.292 258.439 144.515 259.99 L144.515 255.268 Q147.339 254.133 149.792 253.555 Q152.246 252.976 154.283 252.976 Q159.653 252.976 162.848 255.661 Q166.042 258.346 166.042 262.837 Q166.042 264.967 165.232 266.888 Q164.445 268.786 162.339 271.379 Q161.76 272.05 158.658 275.268 Q155.556 278.462 149.908 284.226 Z" fill="#000000" fill-rule="evenodd" fill-opacity="1" /><path clip-path="url(#clip540)" d="M18.0438 1024.29 L24.314 1024.29 Q22.5634 1027.95 21.704 1031.2 Q20.8447 1034.45 20.8447 1037.47 Q20.8447 1042.72 22.8817 1045.59 Q24.9187 1048.42 28.6745 1048.42 Q31.8255 1048.42 33.4488 1046.54 Q35.0402 1044.63 36.0269 1039.35 L36.8226 1035.47 Q38.1912 1028.27 41.6605 1024.87 Q45.098 1021.43 50.8908 1021.43 Q57.7976 1021.43 61.3624 1026.08 Q64.9272 1030.69 64.9272 1039.64 Q64.9272 1043.01 64.1633 1046.83 Q63.3994 1050.62 61.9035 1054.69 L55.2831 1054.69 Q57.4793 1050.78 58.5933 1047.02 Q59.7073 1043.26 59.7073 1039.64 Q59.7073 1034.13 57.543 1031.14 Q55.3786 1028.15 51.3682 1028.15 Q47.8671 1028.15 45.8937 1030.31 Q43.9204 1032.44 42.9337 1037.34 L42.1698 1041.26 Q40.7375 1048.45 37.682 1051.67 Q34.6264 1054.88 29.1837 1054.88 Q22.8817 1054.88 19.2532 1050.46 Q15.6248 1046 15.6248 1038.2 Q15.6248 1034.86 16.2295 1031.39 Q16.8343 1027.92 18.0438 1024.29 Z" fill="#000000" fill-rule="evenodd" fill-opacity="1" /><path clip-path="url(#clip540)" d="M18.0438 982.917 L24.314 982.917 Q22.5634 986.577 21.704 989.824 Q20.8447 993.07 20.8447 996.094 Q20.8447 1001.35 22.8817 1004.21 Q24.9187 1007.04 28.6745 1007.04 Q31.8255 1007.04 33.4488 1005.17 Q35.0402 1003.26 36.0269 997.972 L36.8226 994.089 Q38.1912 986.895 41.6605 983.49 Q45.098 980.052 50.8908 980.052 Q57.7976 980.052 61.3624 984.699 Q64.9272 989.314 64.9272 998.258 Q64.9272 1001.63 64.1633 1005.45 Q63.3994 1009.24 61.9035 1013.31 L55.2831 1013.31 Q57.4793 1009.4 58.5933 1005.64 Q59.7073 1001.89 59.7073 998.258 Q59.7073 992.752 57.543 989.76 Q55.3786 986.768 51.3682 986.768 Q47.8671 986.768 45.8937 988.932 Q43.9204 991.065 42.9337 995.967 L42.1698 999.881 Q40.7375 1007.07 37.682 1010.29 Q34.6264 1013.5 29.1837 1013.5 Q22.8817 1013.5 19.2532 1009.08 Q15.6248 1004.62 15.6248 996.826 Q15.6248 993.484 16.2295 990.015 Q16.8343 986.545 18.0438 982.917 Z" fill="#000000" fill-rule="evenodd" fill-opacity="1" /><path clip-path="url(#clip540)" d="M16.4842 970.026 L16.4842 939.98 L21.895 939.98 L21.895 963.597 L35.9632 963.597 L35.9632 940.967 L41.3741 940.967 L41.3741 963.597 L58.5933 963.597 L58.5933 939.407 L64.0042 939.407 L64.0042 970.026 L16.4842 970.026 Z" fill="#000000" fill-rule="evenodd" fill-opacity="1" /><path clip-path="url(#clip540)" d="M18.0438 879.633 L24.314 879.633 Q22.5634 883.294 21.704 886.54 Q20.8447 889.787 20.8447 892.81 Q20.8447 898.062 22.8817 900.927 Q24.9187 903.759 28.6745 903.759 Q31.8255 903.759 33.4488 901.881 Q35.0402 899.972 36.0269 894.688 L36.8226 890.805 Q38.1912 883.612 41.6605 880.206 Q45.098 876.769 50.8908 876.769 Q57.7976 876.769 61.3624 881.416 Q64.9272 886.031 64.9272 894.975 Q64.9272 898.348 64.1633 902.168 Q63.3994 905.955 61.9035 910.03 L55.2831 910.03 Q57.4793 906.115 58.5933 902.359 Q59.7073 898.603 59.7073 894.975 Q59.7073 889.468 57.543 886.476 Q55.3786 883.485 51.3682 883.485 Q47.8671 883.485 45.8937 885.649 Q43.9204 887.781 42.9337 892.683 L42.1698 896.598 Q40.7375 903.791 37.682 907.006 Q34.6264 910.221 29.1837 910.221 Q22.8817 910.221 19.2532 905.796 Q15.6248 901.34 15.6248 893.542 Q15.6248 890.2 16.2295 886.731 Q16.8343 883.262 18.0438 879.633 Z" fill="#000000" fill-rule="evenodd" fill-opacity="1" /><path clip-path="url(#clip540)" d="M18.2347 861.205 L28.3562 861.205 L28.3562 849.142 L32.9077 849.142 L32.9077 861.205 L52.2594 861.205 Q56.6199 861.205 57.8613 860.027 Q59.1026 858.817 59.1026 855.157 L59.1026 849.142 L64.0042 849.142 L64.0042 855.157 Q64.0042 861.937 61.4897 864.515 Q58.9434 867.093 52.2594 867.093 L32.9077 867.093 L32.9077 871.39 L28.3562 871.39 L28.3562 867.093 L18.2347 867.093 L18.2347 861.205 Z" fill="#000000" fill-rule="evenodd" fill-opacity="1" /><path clip-path="url(#clip540)" d="M33.8307 820.782 Q33.2578 821.769 33.0032 822.947 Q32.7167 824.092 32.7167 825.493 Q32.7167 830.458 35.9632 833.132 Q39.1779 835.774 45.2253 835.774 L64.0042 835.774 L64.0042 841.662 L28.3562 841.662 L28.3562 835.774 L33.8944 835.774 Q30.6479 833.928 29.0883 830.967 Q27.4968 828.007 27.4968 823.774 Q27.4968 823.169 27.5923 822.437 Q27.656 821.705 27.8151 820.814 L33.8307 820.782 Z" fill="#000000" fill-rule="evenodd" fill-opacity="1" /><path clip-path="url(#clip540)" d="M46.0847 798.439 Q46.0847 805.536 47.7079 808.274 Q49.3312 811.011 53.2461 811.011 Q56.3653 811.011 58.2114 808.974 Q60.0256 806.905 60.0256 803.372 Q60.0256 798.502 56.5881 795.574 Q53.1188 792.614 47.3897 792.614 L46.0847 792.614 L46.0847 798.439 M43.6657 786.758 L64.0042 786.758 L64.0042 792.614 L58.5933 792.614 Q61.8398 794.619 63.3994 797.611 Q64.9272 800.603 64.9272 804.932 Q64.9272 810.406 61.8716 813.653 Q58.7843 816.867 53.6281 816.867 Q47.6125 816.867 44.5569 812.857 Q41.5014 808.815 41.5014 800.826 L41.5014 792.614 L40.9285 792.614 Q36.8862 792.614 34.6901 795.288 Q32.4621 797.929 32.4621 802.736 Q32.4621 805.791 33.1941 808.687 Q33.9262 811.584 35.3903 814.257 L29.9795 814.257 Q28.7381 811.043 28.1334 808.019 Q27.4968 804.995 27.4968 802.131 Q27.4968 794.396 31.5072 790.577 Q35.5176 786.758 43.6657 786.758 Z" fill="#000000" fill-rule="evenodd" fill-opacity="1" /><path clip-path="url(#clip540)" d="M18.2347 768.902 L28.3562 768.902 L28.3562 756.839 L32.9077 756.839 L32.9077 768.902 L52.2594 768.902 Q56.6199 768.902 57.8613 767.724 Q59.1026 766.515 59.1026 762.854 L59.1026 756.839 L64.0042 756.839 L64.0042 762.854 Q64.0042 769.634 61.4897 772.212 Q58.9434 774.79 52.2594 774.79 L32.9077 774.79 L32.9077 779.087 L28.3562 779.087 L28.3562 774.79 L18.2347 774.79 L18.2347 768.902 Z" fill="#000000" fill-rule="evenodd" fill-opacity="1" /><path clip-path="url(#clip540)" d="M44.7161 718.645 L47.5806 718.645 L47.5806 745.572 Q53.6281 745.19 56.8109 741.943 Q59.9619 738.665 59.9619 732.84 Q59.9619 729.466 59.1344 726.315 Q58.3069 723.132 56.6518 720.013 L62.1899 720.013 Q63.5267 723.164 64.227 726.474 Q64.9272 729.785 64.9272 733.19 Q64.9272 741.72 59.9619 746.717 Q54.9967 751.683 46.5303 751.683 Q37.7774 751.683 32.6531 746.972 Q27.4968 742.23 27.4968 734.209 Q27.4968 727.015 32.1438 722.846 Q36.7589 718.645 44.7161 718.645 M42.9973 724.501 Q38.1912 724.565 35.3266 727.206 Q32.4621 729.816 32.4621 734.145 Q32.4621 739.047 35.2312 742.007 Q38.0002 744.935 43.0292 745.381 L42.9973 724.501 Z" fill="#000000" fill-rule="evenodd" fill-opacity="1" /><path clip-path="url(#clip540)" d="M45.7664 685.575 Q39.4007 685.575 35.8996 688.216 Q32.3984 690.826 32.3984 695.569 Q32.3984 700.28 35.8996 702.921 Q39.4007 705.531 45.7664 705.531 Q52.1003 705.531 55.6014 702.921 Q59.1026 700.28 59.1026 695.569 Q59.1026 690.826 55.6014 688.216 Q52.1003 685.575 45.7664 685.575 M59.58 679.718 Q68.683 679.718 73.1071 683.76 Q77.5631 687.803 77.5631 696.142 Q77.5631 699.229 77.0857 701.966 Q76.6401 704.704 75.6852 707.282 L69.9879 707.282 Q71.3884 704.704 72.0568 702.189 Q72.7252 699.675 72.7252 697.065 Q72.7252 691.304 69.7015 688.439 Q66.7096 685.575 60.6303 685.575 L57.7339 685.575 Q60.885 687.389 62.4446 690.222 Q64.0042 693.054 64.0042 697.001 Q64.0042 703.558 59.0071 707.568 Q54.01 711.579 45.7664 711.579 Q37.491 711.579 32.4939 707.568 Q27.4968 703.558 27.4968 697.001 Q27.4968 693.054 29.0564 690.222 Q30.616 687.389 33.7671 685.575 L28.3562 685.575 L28.3562 679.718 L59.58 679.718 Z" fill="#000000" fill-rule="evenodd" fill-opacity="1" /><path clip-path="url(#clip540)" d="M67.3143 652.823 Q73.68 655.306 75.6216 657.661 Q77.5631 660.016 77.5631 663.963 L77.5631 668.642 L72.6615 668.642 L72.6615 665.204 Q72.6615 662.785 71.5157 661.449 Q70.3699 660.112 66.1048 658.489 L63.4312 657.438 L28.3562 671.857 L28.3562 665.65 L56.238 654.51 L28.3562 643.37 L28.3562 637.164 L67.3143 652.823 Z" fill="#000000" fill-rule="evenodd" fill-opacity="1" /><path clip-path="url(#clip540)" d="M14.479 608.359 L14.479 602.502 L64.0042 602.502 L64.0042 608.359 L14.479 608.359 Z" fill="#000000" fill-rule="evenodd" fill-opacity="1" /><path clip-path="url(#clip540)" d="M32.4621 576.435 Q32.4621 581.145 36.1542 583.883 Q39.8145 586.62 46.212 586.62 Q52.6095 586.62 56.3017 583.914 Q59.9619 581.177 59.9619 576.435 Q59.9619 571.756 56.2698 569.019 Q52.5777 566.281 46.212 566.281 Q39.8781 566.281 36.186 569.019 Q32.4621 571.756 32.4621 576.435 M27.4968 576.435 Q27.4968 568.796 32.4621 564.435 Q37.4273 560.075 46.212 560.075 Q54.9649 560.075 59.9619 564.435 Q64.9272 568.796 64.9272 576.435 Q64.9272 584.105 59.9619 588.466 Q54.9649 592.795 46.212 592.795 Q37.4273 592.795 32.4621 588.466 Q27.4968 584.105 27.4968 576.435 Z" fill="#000000" fill-rule="evenodd" fill-opacity="1" /><path clip-path="url(#clip540)" d="M29.4065 527.642 L34.9447 527.642 Q33.6716 530.124 33.035 532.798 Q32.3984 535.471 32.3984 538.336 Q32.3984 542.696 33.7352 544.893 Q35.072 547.057 37.7456 547.057 Q39.7826 547.057 40.9603 545.497 Q42.1061 543.938 43.1565 539.227 L43.6021 537.222 Q44.9389 530.984 47.3897 528.374 Q49.8086 525.732 54.1691 525.732 Q59.1344 525.732 62.0308 529.679 Q64.9272 533.593 64.9272 540.468 Q64.9272 543.333 64.3543 546.452 Q63.8132 549.54 62.6992 552.977 L56.6518 552.977 Q58.3387 549.731 59.198 546.58 Q60.0256 543.428 60.0256 540.341 Q60.0256 536.203 58.6251 533.975 Q57.1929 531.747 54.6147 531.747 Q52.2276 531.747 50.9545 533.371 Q49.6813 534.962 48.5037 540.405 L48.0262 542.442 Q46.8804 547.884 44.5251 550.303 Q42.138 552.722 38.0002 552.722 Q32.9713 552.722 30.2341 549.158 Q27.4968 545.593 27.4968 539.036 Q27.4968 535.79 27.9743 532.925 Q28.4517 530.061 29.4065 527.642 Z" fill="#000000" fill-rule="evenodd" fill-opacity="1" /><path clip-path="url(#clip540)" d="M29.4065 493.68 L34.9447 493.68 Q33.6716 496.163 33.035 498.837 Q32.3984 501.51 32.3984 504.375 Q32.3984 508.735 33.7352 510.932 Q35.072 513.096 37.7456 513.096 Q39.7826 513.096 40.9603 511.536 Q42.1061 509.977 43.1565 505.266 L43.6021 503.261 Q44.9389 497.022 47.3897 494.413 Q49.8086 491.771 54.1691 491.771 Q59.1344 491.771 62.0308 495.718 Q64.9272 499.632 64.9272 506.507 Q64.9272 509.372 64.3543 512.491 Q63.8132 515.579 62.6992 519.016 L56.6518 519.016 Q58.3387 515.769 59.198 512.618 Q60.0256 509.467 60.0256 506.38 Q60.0256 502.242 58.6251 500.014 Q57.1929 497.786 54.6147 497.786 Q52.2276 497.786 50.9545 499.41 Q49.6813 501.001 48.5037 506.444 L48.0262 508.481 Q46.8804 513.923 44.5251 516.342 Q42.138 518.761 38.0002 518.761 Q32.9713 518.761 30.2341 515.197 Q27.4968 511.632 27.4968 505.075 Q27.4968 501.829 27.9743 498.964 Q28.4517 496.099 29.4065 493.68 Z" fill="#000000" fill-rule="evenodd" fill-opacity="1" /><path clip-path="url(#clip540)" d="M721.485 18.8205 L721.485 65.8515 L731.369 65.8515 Q743.886 65.8515 749.679 60.1802 Q755.512 54.509 755.512 42.2752 Q755.512 30.1225 749.679 24.4918 Q743.886 18.8205 731.369 18.8205 L721.485 18.8205 M713.302 12.096 L730.113 12.096 Q747.694 12.096 755.918 19.4281 Q764.141 26.7198 764.141 42.2752 Q764.141 57.9117 755.877 65.2439 Q747.613 72.576 730.113 72.576 L713.302 72.576 L713.302 12.096 Z" fill="#000000" fill-rule="evenodd" fill-opacity="1" /><path clip-path="url(#clip540)" d="M815.668 48.0275 L815.668 51.6733 L781.398 51.6733 Q781.884 59.3701 786.016 63.421 Q790.188 67.4314 797.601 67.4314 Q801.895 67.4314 805.906 66.3781 Q809.957 65.3249 813.926 63.2184 L813.926 70.267 Q809.916 71.9684 805.703 72.8596 Q801.49 73.7508 797.156 73.7508 Q786.299 73.7508 779.939 67.4314 Q773.62 61.1119 773.62 50.3365 Q773.62 39.1965 779.615 32.6746 Q785.651 26.1121 795.859 26.1121 Q805.014 26.1121 810.321 32.0264 Q815.668 37.9003 815.668 48.0275 M808.215 45.84 Q808.134 39.7232 804.771 36.0774 Q801.45 32.4315 795.94 32.4315 Q789.702 32.4315 785.935 35.9558 Q782.208 39.4801 781.641 45.8805 L808.215 45.84 Z" fill="#000000" fill-rule="evenodd" fill-opacity="1" /><path clip-path="url(#clip540)" d="M866.71 48.0275 L866.71 51.6733 L832.439 51.6733 Q832.925 59.3701 837.057 63.421 Q841.23 67.4314 848.643 67.4314 Q852.937 67.4314 856.947 66.3781 Q860.998 65.3249 864.968 63.2184 L864.968 70.267 Q860.957 71.9684 856.745 72.8596 Q852.532 73.7508 848.197 73.7508 Q837.341 73.7508 830.981 67.4314 Q824.661 61.1119 824.661 50.3365 Q824.661 39.1965 830.657 32.6746 Q836.693 26.1121 846.901 26.1121 Q856.056 26.1121 861.363 32.0264 Q866.71 37.9003 866.71 48.0275 M859.256 45.84 Q859.175 39.7232 855.813 36.0774 Q852.491 32.4315 846.982 32.4315 Q840.743 32.4315 836.976 35.9558 Q833.249 39.4801 832.682 45.8805 L859.256 45.84 Z" fill="#000000" fill-rule="evenodd" fill-opacity="1" /><path clip-path="url(#clip540)" d="M886.154 65.7705 L886.154 89.8329 L878.66 89.8329 L878.66 27.2059 L886.154 27.2059 L886.154 34.0924 Q888.504 30.0415 892.068 28.0971 Q895.674 26.1121 900.656 26.1121 Q908.92 26.1121 914.065 32.6746 Q919.25 39.2371 919.25 49.9314 Q919.25 60.6258 914.065 67.1883 Q908.92 73.7508 900.656 73.7508 Q895.674 73.7508 892.068 71.8063 Q888.504 69.8214 886.154 65.7705 M911.513 49.9314 Q911.513 41.7081 908.11 37.0496 Q904.748 32.3505 898.833 32.3505 Q892.919 32.3505 889.516 37.0496 Q886.154 41.7081 886.154 49.9314 Q886.154 58.1548 889.516 62.8538 Q892.919 67.5124 898.833 67.5124 Q904.748 67.5124 908.11 62.8538 Q911.513 58.1548 911.513 49.9314 Z" fill="#000000" fill-rule="evenodd" fill-opacity="1" /><path clip-path="url(#clip540)" d="M1003.59 16.7545 L1003.59 25.383 Q999.458 21.5346 994.759 19.6307 Q990.1 17.7268 984.834 17.7268 Q974.464 17.7268 968.955 24.0867 Q963.445 30.4061 963.445 42.3968 Q963.445 54.3469 968.955 60.7069 Q974.464 67.0263 984.834 67.0263 Q990.1 67.0263 994.759 65.1223 Q999.458 63.2184 1003.59 59.3701 L1003.59 67.9175 Q999.296 70.8341 994.475 72.2924 Q989.695 73.7508 984.348 73.7508 Q970.615 73.7508 962.716 65.3654 Q954.817 56.9395 954.817 42.3968 Q954.817 27.8135 962.716 19.4281 Q970.615 11.0023 984.348 11.0023 Q989.776 11.0023 994.556 12.4606 Q999.377 13.8784 1003.59 16.7545 Z" fill="#000000" fill-rule="evenodd" fill-opacity="1" /><path clip-path="url(#clip540)" d="M1016.23 12.096 L1050.99 12.096 L1050.99 18.9825 L1024.41 18.9825 L1024.41 36.8065 L1048.39 36.8065 L1048.39 43.6931 L1024.41 43.6931 L1024.41 72.576 L1016.23 72.576 L1016.23 12.096 Z" fill="#000000" fill-rule="evenodd" fill-opacity="1" /><path clip-path="url(#clip540)" d="M1092.63 44.2197 Q1095.26 45.1109 1097.73 48.0275 Q1100.24 50.9442 1102.76 56.0483 L1111.06 72.576 L1102.27 72.576 L1094.53 57.061 Q1091.53 50.9847 1088.7 48.9997 Q1085.9 47.0148 1081.04 47.0148 L1072.13 47.0148 L1072.13 72.576 L1063.95 72.576 L1063.95 12.096 L1082.42 12.096 Q1092.79 12.096 1097.89 16.4305 Q1103 20.7649 1103 29.5149 Q1103 35.2267 1100.33 38.994 Q1097.69 42.7613 1092.63 44.2197 M1072.13 18.8205 L1072.13 40.2903 L1082.42 40.2903 Q1088.33 40.2903 1091.33 37.5762 Q1094.37 34.8216 1094.37 29.5149 Q1094.37 24.2082 1091.33 21.5346 Q1088.33 18.8205 1082.42 18.8205 L1072.13 18.8205 Z" fill="#000000" fill-rule="evenodd" fill-opacity="1" /><path clip-path="url(#clip540)" d="M1155.01 14.324 L1155.01 27.2059 L1170.37 27.2059 L1170.37 32.9987 L1155.01 32.9987 L1155.01 57.6282 Q1155.01 63.1779 1156.51 64.7578 Q1158.05 66.3376 1162.71 66.3376 L1170.37 66.3376 L1170.37 72.576 L1162.71 72.576 Q1154.08 72.576 1150.8 69.3758 Q1147.52 66.1351 1147.52 57.6282 L1147.52 32.9987 L1142.05 32.9987 L1142.05 27.2059 L1147.52 27.2059 L1147.52 14.324 L1155.01 14.324 Z" fill="#000000" fill-rule="evenodd" fill-opacity="1" /><path clip-path="url(#clip540)" d="M1206.46 34.1734 Q1205.2 33.4443 1203.7 33.1202 Q1202.25 32.7556 1200.46 32.7556 Q1194.14 32.7556 1190.74 36.8875 Q1187.38 40.9789 1187.38 48.6757 L1187.38 72.576 L1179.89 72.576 L1179.89 27.2059 L1187.38 27.2059 L1187.38 34.2544 Q1189.73 30.1225 1193.5 28.1376 Q1197.26 26.1121 1202.65 26.1121 Q1203.42 26.1121 1204.35 26.2337 Q1205.28 26.3147 1206.42 26.5172 L1206.46 34.1734 Z" fill="#000000" fill-rule="evenodd" fill-opacity="1" /><path clip-path="url(#clip540)" d="M1234.9 49.7694 Q1225.86 49.7694 1222.38 51.8354 Q1218.9 53.9013 1218.9 58.8839 Q1218.9 62.8538 1221.49 65.2034 Q1224.12 67.5124 1228.62 67.5124 Q1234.82 67.5124 1238.54 63.1374 Q1242.31 58.7219 1242.31 51.4303 L1242.31 49.7694 L1234.9 49.7694 M1249.76 46.6907 L1249.76 72.576 L1242.31 72.576 L1242.31 65.6895 Q1239.76 69.8214 1235.95 71.8063 Q1232.14 73.7508 1226.63 73.7508 Q1219.67 73.7508 1215.53 69.8619 Q1211.44 65.9325 1211.44 59.3701 Q1211.44 51.7138 1216.55 47.825 Q1221.69 43.9361 1231.86 43.9361 L1242.31 43.9361 L1242.31 43.2069 Q1242.31 38.0623 1238.91 35.2672 Q1235.54 32.4315 1229.43 32.4315 Q1225.54 32.4315 1221.85 33.3632 Q1218.17 34.295 1214.76 36.1584 L1214.76 29.2718 Q1218.85 27.692 1222.7 26.9223 Q1226.55 26.1121 1230.2 26.1121 Q1240.04 26.1121 1244.9 31.2163 Q1249.76 36.3204 1249.76 46.6907 Z" fill="#000000" fill-rule="evenodd" fill-opacity="1" /><path clip-path="url(#clip540)" d="M1265.12 27.2059 L1272.57 27.2059 L1272.57 72.576 L1265.12 72.576 L1265.12 27.2059 M1265.12 9.54393 L1272.57 9.54393 L1272.57 18.9825 L1265.12 18.9825 L1265.12 9.54393 Z" fill="#000000" fill-rule="evenodd" fill-opacity="1" /><path clip-path="url(#clip540)" d="M1325.88 45.1919 L1325.88 72.576 L1318.43 72.576 L1318.43 45.4349 Q1318.43 38.994 1315.91 35.7938 Q1313.4 32.5936 1308.38 32.5936 Q1302.34 32.5936 1298.86 36.4419 Q1295.38 40.2903 1295.38 46.9338 L1295.38 72.576 L1287.88 72.576 L1287.88 27.2059 L1295.38 27.2059 L1295.38 34.2544 Q1298.05 30.163 1301.66 28.1376 Q1305.3 26.1121 1310.04 26.1121 Q1317.86 26.1121 1321.87 30.9732 Q1325.88 35.7938 1325.88 45.1919 Z" fill="#000000" fill-rule="evenodd" fill-opacity="1" /><path clip-path="url(#clip540)" d="M1340.75 27.2059 L1348.2 27.2059 L1348.2 72.576 L1340.75 72.576 L1340.75 27.2059 M1340.75 9.54393 L1348.2 9.54393 L1348.2 18.9825 L1340.75 18.9825 L1340.75 9.54393 Z" fill="#000000" fill-rule="evenodd" fill-opacity="1" /><path clip-path="url(#clip540)" d="M1401.51 45.1919 L1401.51 72.576 L1394.06 72.576 L1394.06 45.4349 Q1394.06 38.994 1391.54 35.7938 Q1389.03 32.5936 1384.01 32.5936 Q1377.97 32.5936 1374.49 36.4419 Q1371.01 40.2903 1371.01 46.9338 L1371.01 72.576 L1363.51 72.576 L1363.51 27.2059 L1371.01 27.2059 L1371.01 34.2544 Q1373.68 30.163 1377.29 28.1376 Q1380.93 26.1121 1385.67 26.1121 Q1393.49 26.1121 1397.5 30.9732 Q1401.51 35.7938 1401.51 45.1919 Z" fill="#000000" fill-rule="evenodd" fill-opacity="1" /><path clip-path="url(#clip540)" d="M1446.23 49.3643 Q1446.23 41.2625 1442.87 36.8065 Q1439.55 32.3505 1433.51 32.3505 Q1427.52 32.3505 1424.15 36.8065 Q1420.83 41.2625 1420.83 49.3643 Q1420.83 57.4256 1424.15 61.8816 Q1427.52 66.3376 1433.51 66.3376 Q1439.55 66.3376 1442.87 61.8816 Q1446.23 57.4256 1446.23 49.3643 M1453.69 66.9452 Q1453.69 78.5308 1448.54 84.1616 Q1443.4 89.8329 1432.78 89.8329 Q1428.85 89.8329 1425.37 89.2252 Q1421.89 88.6581 1418.6 87.4428 L1418.6 80.1917 Q1421.89 81.9741 1425.09 82.8248 Q1428.29 83.6755 1431.61 83.6755 Q1438.94 83.6755 1442.59 79.8271 Q1446.23 76.0193 1446.23 68.282 L1446.23 64.5957 Q1443.92 68.6061 1440.32 70.5911 Q1436.71 72.576 1431.69 72.576 Q1423.34 72.576 1418.24 66.2161 Q1413.14 59.8562 1413.14 49.3643 Q1413.14 38.832 1418.24 32.472 Q1423.34 26.1121 1431.69 26.1121 Q1436.71 26.1121 1440.32 28.0971 Q1443.92 30.082 1446.23 34.0924 L1446.23 27.2059 L1453.69 27.2059 L1453.69 66.9452 Z" fill="#000000" fill-rule="evenodd" fill-opacity="1" /><path clip-path="url(#clip540)" d="M1502.62 65.7705 L1502.62 89.8329 L1495.13 89.8329 L1495.13 27.2059 L1502.62 27.2059 L1502.62 34.0924 Q1504.97 30.0415 1508.54 28.0971 Q1512.14 26.1121 1517.12 26.1121 Q1525.39 26.1121 1530.53 32.6746 Q1535.72 39.2371 1535.72 49.9314 Q1535.72 60.6258 1530.53 67.1883 Q1525.39 73.7508 1517.12 73.7508 Q1512.14 73.7508 1508.54 71.8063 Q1504.97 69.8214 1502.62 65.7705 M1527.98 49.9314 Q1527.98 41.7081 1524.58 37.0496 Q1521.21 32.3505 1515.3 32.3505 Q1509.39 32.3505 1505.98 37.0496 Q1502.62 41.7081 1502.62 49.9314 Q1502.62 58.1548 1505.98 62.8538 Q1509.39 67.5124 1515.3 67.5124 Q1521.21 67.5124 1524.58 62.8538 Q1527.98 58.1548 1527.98 49.9314 Z" fill="#000000" fill-rule="evenodd" fill-opacity="1" /><path clip-path="url(#clip540)" d="M1574.36 34.1734 Q1573.11 33.4443 1571.61 33.1202 Q1570.15 32.7556 1568.37 32.7556 Q1562.05 32.7556 1558.64 36.8875 Q1555.28 40.9789 1555.28 48.6757 L1555.28 72.576 L1547.79 72.576 L1547.79 27.2059 L1555.28 27.2059 L1555.28 34.2544 Q1557.63 30.1225 1561.4 28.1376 Q1565.17 26.1121 1570.55 26.1121 Q1571.32 26.1121 1572.26 26.2337 Q1573.19 26.3147 1574.32 26.5172 L1574.36 34.1734 Z" fill="#000000" fill-rule="evenodd" fill-opacity="1" /><path clip-path="url(#clip540)" d="M1597.94 32.4315 Q1591.94 32.4315 1588.46 37.1306 Q1584.98 41.7891 1584.98 49.9314 Q1584.98 58.0738 1588.42 62.7728 Q1591.9 67.4314 1597.94 67.4314 Q1603.89 67.4314 1607.38 62.7323 Q1610.86 58.0333 1610.86 49.9314 Q1610.86 41.8701 1607.38 37.1711 Q1603.89 32.4315 1597.94 32.4315 M1597.94 26.1121 Q1607.66 26.1121 1613.21 32.4315 Q1618.76 38.7509 1618.76 49.9314 Q1618.76 61.0714 1613.21 67.4314 Q1607.66 73.7508 1597.94 73.7508 Q1588.18 73.7508 1582.63 67.4314 Q1577.12 61.0714 1577.12 49.9314 Q1577.12 38.7509 1582.63 32.4315 Q1588.18 26.1121 1597.94 26.1121 Z" fill="#000000" fill-rule="evenodd" fill-opacity="1" /><path clip-path="url(#clip540)" d="M1660.97 49.3643 Q1660.97 41.2625 1657.61 36.8065 Q1654.29 32.3505 1648.25 32.3505 Q1642.26 32.3505 1638.89 36.8065 Q1635.57 41.2625 1635.57 49.3643 Q1635.57 57.4256 1638.89 61.8816 Q1642.26 66.3376 1648.25 66.3376 Q1654.29 66.3376 1657.61 61.8816 Q1660.97 57.4256 1660.97 49.3643 M1668.42 66.9452 Q1668.42 78.5308 1663.28 84.1616 Q1658.13 89.8329 1647.52 89.8329 Q1643.59 89.8329 1640.11 89.2252 Q1636.62 88.6581 1633.34 87.4428 L1633.34 80.1917 Q1636.62 81.9741 1639.82 82.8248 Q1643.03 83.6755 1646.35 83.6755 Q1653.68 83.6755 1657.32 79.8271 Q1660.97 76.0193 1660.97 68.282 L1660.97 64.5957 Q1658.66 68.6061 1655.06 70.5911 Q1651.45 72.576 1646.43 72.576 Q1638.08 72.576 1632.98 66.2161 Q1627.87 59.8562 1627.87 49.3643 Q1627.87 38.832 1632.98 32.472 Q1638.08 26.1121 1646.43 26.1121 Q1651.45 26.1121 1655.06 28.0971 Q1658.66 30.082 1660.97 34.0924 L1660.97 27.2059 L1668.42 27.2059 L1668.42 66.9452 Z" fill="#000000" fill-rule="evenodd" fill-opacity="1" /><path clip-path="url(#clip540)" d="M1710.07 34.1734 Q1708.81 33.4443 1707.31 33.1202 Q1705.85 32.7556 1704.07 32.7556 Q1697.75 32.7556 1694.35 36.8875 Q1690.99 40.9789 1690.99 48.6757 L1690.99 72.576 L1683.49 72.576 L1683.49 27.2059 L1690.99 27.2059 L1690.99 34.2544 Q1693.34 30.1225 1697.1 28.1376 Q1700.87 26.1121 1706.26 26.1121 Q1707.03 26.1121 1707.96 26.2337 Q1708.89 26.3147 1710.03 26.5172 L1710.07 34.1734 Z" fill="#000000" fill-rule="evenodd" fill-opacity="1" /><path clip-path="url(#clip540)" d="M1754.87 48.0275 L1754.87 51.6733 L1720.6 51.6733 Q1721.09 59.3701 1725.22 63.421 Q1729.39 67.4314 1736.8 67.4314 Q1741.1 67.4314 1745.11 66.3781 Q1749.16 65.3249 1753.13 63.2184 L1753.13 70.267 Q1749.12 71.9684 1744.91 72.8596 Q1740.69 73.7508 1736.36 73.7508 Q1725.5 73.7508 1719.14 67.4314 Q1712.82 61.1119 1712.82 50.3365 Q1712.82 39.1965 1718.82 32.6746 Q1724.85 26.1121 1735.06 26.1121 Q1744.22 26.1121 1749.52 32.0264 Q1754.87 37.9003 1754.87 48.0275 M1747.42 45.84 Q1747.34 39.7232 1743.97 36.0774 Q1740.65 32.4315 1735.14 32.4315 Q1728.9 32.4315 1725.14 35.9558 Q1721.41 39.4801 1720.84 45.8805 L1747.42 45.84 Z" fill="#000000" fill-rule="evenodd" fill-opacity="1" /><path clip-path="url(#clip540)" d="M1796.03 28.5427 L1796.03 35.5912 Q1792.87 33.9709 1789.47 33.1607 Q1786.06 32.3505 1782.42 32.3505 Q1776.87 32.3505 1774.07 34.0519 Q1771.32 35.7533 1771.32 39.156 Q1771.32 41.7486 1773.3 43.2475 Q1775.29 44.7058 1781.28 46.0426 L1783.83 46.6097 Q1791.77 48.3111 1795.1 51.4303 Q1798.46 54.509 1798.46 60.0587 Q1798.46 66.3781 1793.44 70.0644 Q1788.45 73.7508 1779.7 73.7508 Q1776.06 73.7508 1772.09 73.0216 Q1768.16 72.3329 1763.78 70.9151 L1763.78 63.2184 Q1767.91 65.3654 1771.92 66.4591 Q1775.94 67.5124 1779.86 67.5124 Q1785.13 67.5124 1787.97 65.73 Q1790.8 63.9071 1790.8 60.6258 Q1790.8 57.5877 1788.74 55.9673 Q1786.71 54.3469 1779.78 52.8481 L1777.19 52.2405 Q1770.26 50.7821 1767.19 47.7845 Q1764.11 44.7463 1764.11 39.4801 Q1764.11 33.0797 1768.64 29.5959 Q1773.18 26.1121 1781.53 26.1121 Q1785.66 26.1121 1789.3 26.7198 Q1792.95 27.3274 1796.03 28.5427 Z" fill="#000000" fill-rule="evenodd" fill-opacity="1" /><path clip-path="url(#clip540)" d="M1839.25 28.5427 L1839.25 35.5912 Q1836.09 33.9709 1832.69 33.1607 Q1829.29 32.3505 1825.64 32.3505 Q1820.09 32.3505 1817.29 34.0519 Q1814.54 35.7533 1814.54 39.156 Q1814.54 41.7486 1816.53 43.2475 Q1818.51 44.7058 1824.51 46.0426 L1827.06 46.6097 Q1835 48.3111 1838.32 51.4303 Q1841.68 54.509 1841.68 60.0587 Q1841.68 66.3781 1836.66 70.0644 Q1831.68 73.7508 1822.93 73.7508 Q1819.28 73.7508 1815.31 73.0216 Q1811.38 72.3329 1807.01 70.9151 L1807.01 63.2184 Q1811.14 65.3654 1815.15 66.4591 Q1819.16 67.5124 1823.09 67.5124 Q1828.35 67.5124 1831.19 65.73 Q1834.03 63.9071 1834.03 60.6258 Q1834.03 57.5877 1831.96 55.9673 Q1829.93 54.3469 1823.01 52.8481 L1820.41 52.2405 Q1813.49 50.7821 1810.41 47.7845 Q1807.33 44.7463 1807.33 39.4801 Q1807.33 33.0797 1811.87 29.5959 Q1816.4 26.1121 1824.75 26.1121 Q1828.88 26.1121 1832.53 26.7198 Q1836.17 27.3274 1839.25 28.5427 Z" fill="#000000" fill-rule="evenodd" fill-opacity="1" /><polyline clip-path="url(#clip542)" style="stroke:#009af9; stroke-linecap:butt; stroke-linejoin:round; stroke-width:4; stroke-opacity:1; fill:none" points="
  263.091,1183.7 267.157,950.821 271.223,946.588 275.289,871.936 279.354,595.953 283.42,976.898 287.486,1283.58 291.552,761.329 295.617,1059.7 299.683,661.935 
  303.749,815.294 307.815,616.764 311.88,1213.05 315.946,1029.03 320.012,1052.09 324.077,1012.43 328.143,594.075 332.209,1119.06 336.275,1017.29 340.34,1107.03 
  344.406,910.289 348.472,1116.3 352.538,858.344 356.603,549.061 360.669,1009.83 364.735,1044.36 368.801,1028.88 372.866,1136.43 376.932,720.426 380.998,1207.42 
  385.063,1063.67 389.129,1056.32 393.195,1095.34 397.261,1103.89 401.326,1061.3 405.392,1225.98 409.458,987.812 413.524,1000.6 417.589,1007.08 421.655,1062.36 
  425.721,872.906 429.787,984.047 433.852,1083.23 437.918,1115.82 441.984,1214.35 446.049,1256.23 450.115,1055.91 454.181,785.854 458.247,991.744 462.312,745.181 
  466.378,998.197 470.444,1060.47 474.51,981.474 478.575,570.45 482.641,1045.42 486.707,928.556 490.772,911.006 494.838,1212.12 498.904,1191.47 502.97,636.78 
  507.035,850.957 511.101,1100.48 515.167,1204.46 519.233,160.256 523.298,1241.65 527.364,1025.87 531.43,1058.42 535.496,1094.42 539.561,804.375 543.627,990.647 
  547.693,834.831 551.758,1386.4 555.824,1107.81 559.89,1028.93 563.956,1064.96 568.021,950.489 572.087,979.253 576.153,1043.85 580.219,1068.21 584.284,1050.71 
  588.35,1017.07 592.416,999.78 596.482,1009.86 600.547,1057.81 604.613,1058.53 608.679,581.721 612.744,966.218 616.81,1198.61 620.876,1059.26 624.942,1123.23 
  629.007,1059.86 633.073,963.986 637.139,943.492 641.205,1081.3 645.27,1077.18 649.336,1079.16 653.402,1052.2 657.468,1012.5 661.533,1031.22 665.599,587.993 
  669.665,1041.43 673.73,1001.57 677.796,1055.36 681.862,1019.14 685.928,1060.74 689.993,1068.63 694.059,1069.2 698.125,1072.86 702.191,813.345 706.256,1049.51 
  710.322,719.367 714.388,1071.4 718.453,1058.04 722.519,978.318 726.585,547.44 730.651,1028.17 734.716,1080.07 738.782,972.216 742.848,847.964 746.914,1054.48 
  750.979,942.416 755.045,1088.35 759.111,1086.5 763.177,1088.05 767.242,1118.18 771.308,1038.63 775.374,1080.64 779.439,1057.54 783.505,1068.69 787.571,1064.45 
  791.637,1048.44 795.702,1058.66 799.768,1056.4 803.834,1051.75 807.9,1072.01 811.965,1061.13 816.031,1070.08 820.097,1051.72 824.163,1211.15 828.228,1025.75 
  832.294,1058.05 836.36,992.32 840.425,1138.06 844.491,1078 848.557,1052.02 852.623,1034.99 856.688,972.31 860.754,1017.89 864.82,1067.05 868.886,919.457 
  872.951,1036.62 877.017,1014.75 881.083,981.015 885.149,1055.02 889.214,547.839 893.28,1046.37 897.346,1070.92 901.411,1055.92 905.477,989.989 909.543,1045.99 
  913.609,1021.93 917.674,1156.27 921.74,1005.55 925.806,1055.78 929.872,1055.81 933.937,1096.86 938.003,930.372 942.069,1056.57 946.135,1054.51 950.2,1098.67 
  954.266,1066.31 958.332,966.877 962.397,1054.56 966.463,1047.61 970.529,984.415 974.595,1061.12 978.66,1086.72 982.726,1058.4 986.792,1041.56 990.858,853.227 
  994.923,1052.02 998.989,909.245 1003.05,1067.57 1007.12,1067.95 1011.19,895.85 1015.25,1055.65 1019.32,1048.96 1023.38,1007.26 1027.45,989.342 1031.51,1014.46 
  1035.58,1008.17 1039.65,1059.67 1043.71,1002.22 1047.78,1033.75 1051.84,746.955 1055.91,1002.45 1059.98,1071.87 1064.04,995.468 1068.11,1058.87 1072.17,1117.89 
  1076.24,1005.72 1080.3,1221.74 1084.37,1055.16 1088.44,995.722 1092.5,1046.14 1096.57,1028.22 1100.63,1037.76 1104.7,972.77 1108.76,1016.12 1112.83,988.395 
  1116.9,970.45 1120.96,1209.95 1125.03,1055.73 1129.09,945.116 1133.16,986.746 1137.22,1083.58 1141.29,1018.87 1145.36,980.631 1149.42,1230 1153.49,1056.16 
  1157.55,1060.68 1161.62,970.58 1165.68,996.865 1169.75,1001.13 1173.82,1081.87 1177.88,1023.46 1181.95,1064.55 1186.01,1008.24 1190.08,992.73 1194.14,1053.93 
  1198.21,1086.54 1202.28,1098.26 1206.34,967.619 1210.41,975.406 1214.47,1083.77 1218.54,989.145 1222.6,955.088 1226.67,1054.84 1230.74,1065.37 1234.8,995.951 
  1238.87,1058.64 1242.93,998.569 1247,1052.24 1251.06,984.415 1255.13,1057.98 1259.2,996.797 1263.26,1054.89 1267.33,1071.37 1271.39,1070.61 1275.46,1060.37 
  1279.52,1003.94 1283.59,995.525 1287.66,1007.8 1291.72,990.441 1295.79,985.181 1299.85,1016.5 1303.92,1056.57 1307.98,967.667 1312.05,1056.41 1316.12,1055.3 
  1320.18,1048.84 1324.25,1057.41 1328.31,1056.81 1332.38,1031.77 1336.44,635.91 1340.51,965.53 1344.58,1036.22 1348.64,979.991 1352.71,980.39 1356.77,1056.51 
  1360.84,1058.35 1364.9,1061.34 1368.97,1056.89 1373.04,986.29 1377.1,1010.38 1381.17,987.481 1385.23,1073.11 1389.3,1092.72 1393.37,982.645 1397.43,1065.39 
  1401.5,1041.55 1405.56,1059.09 1409.63,1052.7 1413.69,945.435 1417.76,979.664 1421.83,1052.01 1425.89,996.342 1429.96,1004.32 1434.02,1022.55 1438.09,1056.01 
  1442.15,1005.24 1446.22,1062.88 1450.29,1056.59 1454.35,942.754 1458.42,1056.63 1462.48,1065.03 1466.55,1016.77 1470.61,1003.84 1474.68,1055.54 1478.75,1011.2 
  1482.81,1056.82 1486.88,1044.68 1490.94,1049.02 1495.01,1011.65 1499.07,1021.87 1503.14,1062.49 1507.21,991.204 1511.27,1038.18 1515.34,950.242 1519.4,934.463 
  1523.47,992.593 1527.53,993.474 1531.6,1059.45 1535.67,1004.16 1539.73,1060.62 1543.8,997.011 1547.86,1057.29 1551.93,1057.08 1555.99,1093.79 1560.06,1056.41 
  1564.13,954.08 1568.19,1090.83 1572.26,1094.49 1576.32,930.272 1580.39,994.244 1584.45,987.436 1588.52,1071.19 1592.59,983.789 1596.65,947.316 1600.72,1072.64 
  1604.78,970.693 1608.85,1061.34 1612.91,1043.49 1616.98,1057.93 1621.05,1056.55 1625.11,964.74 1629.18,1063.05 1633.24,980.27 1637.31,1056.24 1641.37,1057.11 
  1645.44,986.931 1649.51,1005.85 1653.57,1049.89 1657.64,1058.74 1661.7,986.471 1665.77,972.592 1669.83,1061.98 1673.9,1056.06 1677.97,957.322 1682.03,985.846 
  1686.1,1056.32 1690.16,1004.96 1694.23,1058.93 1698.29,1062.61 1702.36,1056.4 1706.43,1002.45 1710.49,994.919 1714.56,970.882 1718.62,1055.31 1722.69,981.318 
  1726.76,1076.09 1730.82,978.053 1734.89,1019.12 1738.95,1057 1743.02,988.985 1747.08,988.004 1751.15,1033.48 1755.22,1039.89 1759.28,985.182 1763.35,1087.35 
  1767.41,1024.05 1771.48,978.933 1775.54,1070.51 1779.61,1097.38 1783.68,994.768 1787.74,1037.72 1791.81,980.227 1795.87,1055.17 1799.94,1058.32 1804,982.686 
  1808.07,1055.45 1812.14,986.997 1816.2,967.436 1820.27,1055.48 1824.33,1076.16 1828.4,1066.51 1832.46,1004.96 1836.53,986.154 1840.6,995.578 1844.66,1062.13 
  1848.73,1064.65 1852.79,1056.3 1856.86,1046.73 1860.92,954.636 1864.99,1010.25 1869.06,1082.52 1873.12,1033.42 1877.19,1026.05 1881.25,973.203 1885.32,1056.56 
  1889.38,871.333 1893.45,1089.28 1897.52,1005.19 1901.58,994.917 1905.65,978.458 1909.71,1055.99 1913.78,1005.1 1917.84,1059.25 1921.91,931.465 1925.98,1123.69 
  1930.04,1261.48 1934.11,1062.86 1938.17,987.331 1942.24,1032.3 1946.3,962.255 1950.37,944.983 1954.44,1009.67 1958.5,985.944 1962.57,1051.73 1966.63,966.813 
  1970.7,1056.41 1974.76,1024.73 1978.83,987.966 1982.9,1055.86 1986.96,989.364 1991.03,1033.29 1995.09,1000.13 1999.16,964.469 2003.22,1050.66 2007.29,1003.34 
  2011.36,968.434 2015.42,975.339 2019.49,1027.86 2023.55,985.322 2027.62,1059.85 2031.69,1074.02 2035.75,1056 2039.82,1001.19 2043.88,1205.48 2047.95,1052.66 
  2052.01,1065.88 2056.08,967.276 2060.15,1003.89 2064.21,1056.61 2068.28,1056.07 2072.34,983.96 2076.41,1050.23 2080.47,1056.27 2084.54,985.859 2088.61,950.526 
  2092.67,1100.52 2096.74,1054.98 2100.8,990.822 2104.87,1053.65 2108.93,963.477 2113,943.446 2117.07,1054.33 2121.13,1064.32 2125.2,971.914 2129.26,957.645 
  2133.33,1079.5 2137.39,959.519 2141.46,980.865 2145.53,962.056 2149.59,1001.65 2153.66,990.775 2157.72,979.97 2161.79,1066.65 2165.85,1042.13 2169.92,958.804 
  2173.99,976.232 2178.05,984.562 2182.12,1061.25 2186.18,1085.85 2190.25,1056.45 2194.31,1055.37 2198.38,1065.77 2202.45,990.626 2206.51,1011.18 2210.58,1050.12 
  2214.64,997.028 2218.71,1057.45 2222.77,952.795 2226.84,991.752 2230.91,1014.73 2234.97,963.49 2239.04,1004.57 2243.1,960.507 2247.17,1056.49 2251.23,1052.89 
  2255.3,1057.79 2259.37,915.298 2263.43,889.843 2267.5,1035.06 2271.56,1064.94 2275.63,958.623 2279.69,1001 2283.76,1003.09 2287.83,1053.02 2291.89,900.82 
  
  "/>
</svg>
