<?xml version="1.0" encoding="utf-8"?>
<svg xmlns="http://www.w3.org/2000/svg" xmlns:xlink="http://www.w3.org/1999/xlink" width="600" height="400" viewBox="0 0 2400 1600">
<defs>
  <clipPath id="clip640">
    <rect x="0" y="0" width="2400" height="1600"/>
  </clipPath>
</defs>
<path clip-path="url(#clip640)" d="
M0 1600 L2400 1600 L2400 0 L0 0  Z
  " fill="#ffffff" fill-rule="evenodd" fill-opacity="1"/>
<defs>
  <clipPath id="clip641">
    <rect x="480" y="0" width="1681" height="1600"/>
  </clipPath>
</defs>
<path clip-path="url(#clip640)" d="
M202.227 1423.18 L2352.76 1423.18 L2352.76 123.472 L202.227 123.472  Z
  " fill="#ffffff" fill-rule="evenodd" fill-opacity="1"/>
<defs>
  <clipPath id="clip642">
    <rect x="202" y="123" width="2152" height="1301"/>
  </clipPath>
</defs>
<polyline clip-path="url(#clip642)" style="stroke:#000000; stroke-linecap:butt; stroke-linejoin:round; stroke-width:2; stroke-opacity:0.1; fill:none" points="
  259.026,1423.18 259.026,123.472 
  "/>
<polyline clip-path="url(#clip642)" style="stroke:#000000; stroke-linecap:butt; stroke-linejoin:round; stroke-width:2; stroke-opacity:0.1; fill:none" points="
  665.599,1423.18 665.599,123.472 
  "/>
<polyline clip-path="url(#clip642)" style="stroke:#000000; stroke-linecap:butt; stroke-linejoin:round; stroke-width:2; stroke-opacity:0.1; fill:none" points="
  1072.17,1423.18 1072.17,123.472 
  "/>
<polyline clip-path="url(#clip642)" style="stroke:#000000; stroke-linecap:butt; stroke-linejoin:round; stroke-width:2; stroke-opacity:0.1; fill:none" points="
  1478.75,1423.18 1478.75,123.472 
  "/>
<polyline clip-path="url(#clip642)" style="stroke:#000000; stroke-linecap:butt; stroke-linejoin:round; stroke-width:2; stroke-opacity:0.1; fill:none" points="
  1885.32,1423.18 1885.32,123.472 
  "/>
<polyline clip-path="url(#clip642)" style="stroke:#000000; stroke-linecap:butt; stroke-linejoin:round; stroke-width:2; stroke-opacity:0.1; fill:none" points="
  2291.89,1423.18 2291.89,123.472 
  "/>
<polyline clip-path="url(#clip640)" style="stroke:#000000; stroke-linecap:butt; stroke-linejoin:round; stroke-width:4; stroke-opacity:1; fill:none" points="
  202.227,1423.18 2352.76,1423.18 
  "/>
<polyline clip-path="url(#clip640)" style="stroke:#000000; stroke-linecap:butt; stroke-linejoin:round; stroke-width:4; stroke-opacity:1; fill:none" points="
  259.026,1423.18 259.026,1404.28 
  "/>
<polyline clip-path="url(#clip640)" style="stroke:#000000; stroke-linecap:butt; stroke-linejoin:round; stroke-width:4; stroke-opacity:1; fill:none" points="
  665.599,1423.18 665.599,1404.28 
  "/>
<polyline clip-path="url(#clip640)" style="stroke:#000000; stroke-linecap:butt; stroke-linejoin:round; stroke-width:4; stroke-opacity:1; fill:none" points="
  1072.17,1423.18 1072.17,1404.28 
  "/>
<polyline clip-path="url(#clip640)" style="stroke:#000000; stroke-linecap:butt; stroke-linejoin:round; stroke-width:4; stroke-opacity:1; fill:none" points="
  1478.75,1423.18 1478.75,1404.28 
  "/>
<polyline clip-path="url(#clip640)" style="stroke:#000000; stroke-linecap:butt; stroke-linejoin:round; stroke-width:4; stroke-opacity:1; fill:none" points="
  1885.32,1423.18 1885.32,1404.28 
  "/>
<polyline clip-path="url(#clip640)" style="stroke:#000000; stroke-linecap:butt; stroke-linejoin:round; stroke-width:4; stroke-opacity:1; fill:none" points="
  2291.89,1423.18 2291.89,1404.28 
  "/>
<path clip-path="url(#clip640)" d="M259.026 1454.1 Q255.415 1454.1 253.586 1457.66 Q251.78 1461.2 251.78 1468.33 Q251.78 1475.44 253.586 1479.01 Q255.415 1482.55 259.026 1482.55 Q262.66 1482.55 264.466 1479.01 Q266.294 1475.44 266.294 1468.33 Q266.294 1461.2 264.466 1457.66 Q262.66 1454.1 259.026 1454.1 M259.026 1450.39 Q264.836 1450.39 267.891 1455 Q270.97 1459.58 270.97 1468.33 Q270.97 1477.06 267.891 1481.67 Q264.836 1486.25 259.026 1486.25 Q253.216 1486.25 250.137 1481.67 Q247.081 1477.06 247.081 1468.33 Q247.081 1459.58 250.137 1455 Q253.216 1450.39 259.026 1450.39 Z" fill="#000000" fill-rule="evenodd" fill-opacity="1" /><path clip-path="url(#clip640)" d="M625.206 1481.64 L632.845 1481.64 L632.845 1455.28 L624.534 1456.95 L624.534 1452.69 L632.798 1451.02 L637.474 1451.02 L637.474 1481.64 L645.113 1481.64 L645.113 1485.58 L625.206 1485.58 L625.206 1481.64 Z" fill="#000000" fill-rule="evenodd" fill-opacity="1" /><path clip-path="url(#clip640)" d="M664.557 1454.1 Q660.946 1454.1 659.118 1457.66 Q657.312 1461.2 657.312 1468.33 Q657.312 1475.44 659.118 1479.01 Q660.946 1482.55 664.557 1482.55 Q668.192 1482.55 669.997 1479.01 Q671.826 1475.44 671.826 1468.33 Q671.826 1461.2 669.997 1457.66 Q668.192 1454.1 664.557 1454.1 M664.557 1450.39 Q670.367 1450.39 673.423 1455 Q676.502 1459.58 676.502 1468.33 Q676.502 1477.06 673.423 1481.67 Q670.367 1486.25 664.557 1486.25 Q658.747 1486.25 655.668 1481.67 Q652.613 1477.06 652.613 1468.33 Q652.613 1459.58 655.668 1455 Q658.747 1450.39 664.557 1450.39 Z" fill="#000000" fill-rule="evenodd" fill-opacity="1" /><path clip-path="url(#clip640)" d="M694.719 1454.1 Q691.108 1454.1 689.279 1457.66 Q687.474 1461.2 687.474 1468.33 Q687.474 1475.44 689.279 1479.01 Q691.108 1482.55 694.719 1482.55 Q698.353 1482.55 700.159 1479.01 Q701.988 1475.44 701.988 1468.33 Q701.988 1461.2 700.159 1457.66 Q698.353 1454.1 694.719 1454.1 M694.719 1450.39 Q700.529 1450.39 703.585 1455 Q706.664 1459.58 706.664 1468.33 Q706.664 1477.06 703.585 1481.67 Q700.529 1486.25 694.719 1486.25 Q688.909 1486.25 685.83 1481.67 Q682.775 1477.06 682.775 1468.33 Q682.775 1459.58 685.83 1455 Q688.909 1450.39 694.719 1450.39 Z" fill="#000000" fill-rule="evenodd" fill-opacity="1" /><path clip-path="url(#clip640)" d="M1035.86 1481.64 L1052.18 1481.64 L1052.18 1485.58 L1030.24 1485.58 L1030.24 1481.64 Q1032.9 1478.89 1037.48 1474.26 Q1042.09 1469.61 1043.27 1468.27 Q1045.52 1465.74 1046.4 1464.01 Q1047.3 1462.25 1047.3 1460.56 Q1047.3 1457.8 1045.36 1456.07 Q1043.43 1454.33 1040.33 1454.33 Q1038.13 1454.33 1035.68 1455.09 Q1033.25 1455.86 1030.47 1457.41 L1030.47 1452.69 Q1033.3 1451.55 1035.75 1450.97 Q1038.2 1450.39 1040.24 1450.39 Q1045.61 1450.39 1048.8 1453.08 Q1052 1455.77 1052 1460.26 Q1052 1462.39 1051.19 1464.31 Q1050.4 1466.2 1048.3 1468.8 Q1047.72 1469.47 1044.61 1472.69 Q1041.51 1475.88 1035.86 1481.64 Z" fill="#000000" fill-rule="evenodd" fill-opacity="1" /><path clip-path="url(#clip640)" d="M1072 1454.1 Q1068.39 1454.1 1066.56 1457.66 Q1064.75 1461.2 1064.75 1468.33 Q1064.75 1475.44 1066.56 1479.01 Q1068.39 1482.55 1072 1482.55 Q1075.63 1482.55 1077.44 1479.01 Q1079.27 1475.44 1079.27 1468.33 Q1079.27 1461.2 1077.44 1457.66 Q1075.63 1454.1 1072 1454.1 M1072 1450.39 Q1077.81 1450.39 1080.86 1455 Q1083.94 1459.58 1083.94 1468.33 Q1083.94 1477.06 1080.86 1481.67 Q1077.81 1486.25 1072 1486.25 Q1066.19 1486.25 1063.11 1481.67 Q1060.05 1477.06 1060.05 1468.33 Q1060.05 1459.58 1063.11 1455 Q1066.19 1450.39 1072 1450.39 Z" fill="#000000" fill-rule="evenodd" fill-opacity="1" /><path clip-path="url(#clip640)" d="M1102.16 1454.1 Q1098.55 1454.1 1096.72 1457.66 Q1094.92 1461.2 1094.92 1468.33 Q1094.92 1475.44 1096.72 1479.01 Q1098.55 1482.55 1102.16 1482.55 Q1105.79 1482.55 1107.6 1479.01 Q1109.43 1475.44 1109.43 1468.33 Q1109.43 1461.2 1107.6 1457.66 Q1105.79 1454.1 1102.16 1454.1 M1102.16 1450.39 Q1107.97 1450.39 1111.03 1455 Q1114.1 1459.58 1114.1 1468.33 Q1114.1 1477.06 1111.03 1481.67 Q1107.97 1486.25 1102.16 1486.25 Q1096.35 1486.25 1093.27 1481.67 Q1090.22 1477.06 1090.22 1468.33 Q1090.22 1459.58 1093.27 1455 Q1096.35 1450.39 1102.16 1450.39 Z" fill="#000000" fill-rule="evenodd" fill-opacity="1" /><path clip-path="url(#clip640)" d="M1452.51 1466.95 Q1455.86 1467.66 1457.74 1469.93 Q1459.64 1472.2 1459.64 1475.53 Q1459.64 1480.65 1456.12 1483.45 Q1452.6 1486.25 1446.12 1486.25 Q1443.94 1486.25 1441.63 1485.81 Q1439.34 1485.39 1436.88 1484.54 L1436.88 1480.02 Q1438.83 1481.16 1441.14 1481.74 Q1443.46 1482.32 1445.98 1482.32 Q1450.38 1482.32 1452.67 1480.58 Q1454.98 1478.84 1454.98 1475.53 Q1454.98 1472.48 1452.83 1470.77 Q1450.7 1469.03 1446.88 1469.03 L1442.85 1469.03 L1442.85 1465.19 L1447.07 1465.19 Q1450.52 1465.19 1452.35 1463.82 Q1454.17 1462.43 1454.17 1459.84 Q1454.17 1457.18 1452.28 1455.77 Q1450.4 1454.33 1446.88 1454.33 Q1444.96 1454.33 1442.76 1454.75 Q1440.56 1455.16 1437.92 1456.04 L1437.92 1451.88 Q1440.59 1451.14 1442.9 1450.77 Q1445.24 1450.39 1447.3 1450.39 Q1452.62 1450.39 1455.72 1452.83 Q1458.83 1455.23 1458.83 1459.35 Q1458.83 1462.22 1457.18 1464.21 Q1455.54 1466.18 1452.51 1466.95 Z" fill="#000000" fill-rule="evenodd" fill-opacity="1" /><path clip-path="url(#clip640)" d="M1478.5 1454.1 Q1474.89 1454.1 1473.06 1457.66 Q1471.26 1461.2 1471.26 1468.33 Q1471.26 1475.44 1473.06 1479.01 Q1474.89 1482.55 1478.5 1482.55 Q1482.14 1482.55 1483.94 1479.01 Q1485.77 1475.44 1485.77 1468.33 Q1485.77 1461.2 1483.94 1457.66 Q1482.14 1454.1 1478.5 1454.1 M1478.5 1450.39 Q1484.31 1450.39 1487.37 1455 Q1490.45 1459.58 1490.45 1468.33 Q1490.45 1477.06 1487.37 1481.67 Q1484.31 1486.25 1478.5 1486.25 Q1472.69 1486.25 1469.61 1481.67 Q1466.56 1477.06 1466.56 1468.33 Q1466.56 1459.58 1469.61 1455 Q1472.69 1450.39 1478.5 1450.39 Z" fill="#000000" fill-rule="evenodd" fill-opacity="1" /><path clip-path="url(#clip640)" d="M1508.66 1454.1 Q1505.05 1454.1 1503.22 1457.66 Q1501.42 1461.2 1501.42 1468.33 Q1501.42 1475.44 1503.22 1479.01 Q1505.05 1482.55 1508.66 1482.55 Q1512.3 1482.55 1514.1 1479.01 Q1515.93 1475.44 1515.93 1468.33 Q1515.93 1461.2 1514.1 1457.66 Q1512.3 1454.1 1508.66 1454.1 M1508.66 1450.39 Q1514.47 1450.39 1517.53 1455 Q1520.61 1459.58 1520.61 1468.33 Q1520.61 1477.06 1517.53 1481.67 Q1514.47 1486.25 1508.66 1486.25 Q1502.85 1486.25 1499.78 1481.67 Q1496.72 1477.06 1496.72 1468.33 Q1496.72 1459.58 1499.78 1455 Q1502.85 1450.39 1508.66 1450.39 Z" fill="#000000" fill-rule="evenodd" fill-opacity="1" /><path clip-path="url(#clip640)" d="M1858.41 1455.09 L1846.6 1473.54 L1858.41 1473.54 L1858.41 1455.09 M1857.18 1451.02 L1863.06 1451.02 L1863.06 1473.54 L1867.99 1473.54 L1867.99 1477.43 L1863.06 1477.43 L1863.06 1485.58 L1858.41 1485.58 L1858.41 1477.43 L1842.81 1477.43 L1842.81 1472.92 L1857.18 1451.02 Z" fill="#000000" fill-rule="evenodd" fill-opacity="1" /><path clip-path="url(#clip640)" d="M1885.72 1454.1 Q1882.11 1454.1 1880.28 1457.66 Q1878.48 1461.2 1878.48 1468.33 Q1878.48 1475.44 1880.28 1479.01 Q1882.11 1482.55 1885.72 1482.55 Q1889.36 1482.55 1891.16 1479.01 Q1892.99 1475.44 1892.99 1468.33 Q1892.99 1461.2 1891.16 1457.66 Q1889.36 1454.1 1885.72 1454.1 M1885.72 1450.39 Q1891.53 1450.39 1894.59 1455 Q1897.67 1459.58 1897.67 1468.33 Q1897.67 1477.06 1894.59 1481.67 Q1891.53 1486.25 1885.72 1486.25 Q1879.91 1486.25 1876.83 1481.67 Q1873.78 1477.06 1873.78 1468.33 Q1873.78 1459.58 1876.83 1455 Q1879.91 1450.39 1885.72 1450.39 Z" fill="#000000" fill-rule="evenodd" fill-opacity="1" /><path clip-path="url(#clip640)" d="M1915.89 1454.1 Q1912.27 1454.1 1910.45 1457.66 Q1908.64 1461.2 1908.64 1468.33 Q1908.64 1475.44 1910.45 1479.01 Q1912.27 1482.55 1915.89 1482.55 Q1919.52 1482.55 1921.33 1479.01 Q1923.15 1475.44 1923.15 1468.33 Q1923.15 1461.2 1921.33 1457.66 Q1919.52 1454.1 1915.89 1454.1 M1915.89 1450.39 Q1921.7 1450.39 1924.75 1455 Q1927.83 1459.58 1927.83 1468.33 Q1927.83 1477.06 1924.75 1481.67 Q1921.7 1486.25 1915.89 1486.25 Q1910.08 1486.25 1907 1481.67 Q1903.94 1477.06 1903.94 1468.33 Q1903.94 1459.58 1907 1455 Q1910.08 1450.39 1915.89 1450.39 Z" fill="#000000" fill-rule="evenodd" fill-opacity="1" /><path clip-path="url(#clip640)" d="M2251.51 1451.02 L2269.87 1451.02 L2269.87 1454.96 L2255.79 1454.96 L2255.79 1463.43 Q2256.81 1463.08 2257.83 1462.92 Q2258.85 1462.73 2259.87 1462.73 Q2265.65 1462.73 2269.03 1465.9 Q2272.41 1469.08 2272.41 1474.49 Q2272.41 1480.07 2268.94 1483.17 Q2265.47 1486.25 2259.15 1486.25 Q2256.97 1486.25 2254.7 1485.88 Q2252.46 1485.51 2250.05 1484.77 L2250.05 1480.07 Q2252.14 1481.2 2254.36 1481.76 Q2256.58 1482.32 2259.06 1482.32 Q2263.06 1482.32 2265.4 1480.21 Q2267.74 1478.1 2267.74 1474.49 Q2267.74 1470.88 2265.4 1468.77 Q2263.06 1466.67 2259.06 1466.67 Q2257.18 1466.67 2255.31 1467.08 Q2253.45 1467.5 2251.51 1468.38 L2251.51 1451.02 Z" fill="#000000" fill-rule="evenodd" fill-opacity="1" /><path clip-path="url(#clip640)" d="M2291.63 1454.1 Q2288.01 1454.1 2286.19 1457.66 Q2284.38 1461.2 2284.38 1468.33 Q2284.38 1475.44 2286.19 1479.01 Q2288.01 1482.55 2291.63 1482.55 Q2295.26 1482.55 2297.07 1479.01 Q2298.89 1475.44 2298.89 1468.33 Q2298.89 1461.2 2297.07 1457.66 Q2295.26 1454.1 2291.63 1454.1 M2291.63 1450.39 Q2297.44 1450.39 2300.49 1455 Q2303.57 1459.58 2303.57 1468.33 Q2303.57 1477.06 2300.49 1481.67 Q2297.44 1486.25 2291.63 1486.25 Q2285.82 1486.25 2282.74 1481.67 Q2279.68 1477.06 2279.68 1468.33 Q2279.68 1459.58 2282.74 1455 Q2285.82 1450.39 2291.63 1450.39 Z" fill="#000000" fill-rule="evenodd" fill-opacity="1" /><path clip-path="url(#clip640)" d="M2321.79 1454.1 Q2318.18 1454.1 2316.35 1457.66 Q2314.54 1461.2 2314.54 1468.33 Q2314.54 1475.44 2316.35 1479.01 Q2318.18 1482.55 2321.79 1482.55 Q2325.42 1482.55 2327.23 1479.01 Q2329.06 1475.44 2329.06 1468.33 Q2329.06 1461.2 2327.23 1457.66 Q2325.42 1454.1 2321.79 1454.1 M2321.79 1450.39 Q2327.6 1450.39 2330.65 1455 Q2333.73 1459.58 2333.73 1468.33 Q2333.73 1477.06 2330.65 1481.67 Q2327.6 1486.25 2321.79 1486.25 Q2315.98 1486.25 2312.9 1481.67 Q2309.84 1477.06 2309.84 1468.33 Q2309.84 1459.58 2312.9 1455 Q2315.98 1450.39 2321.79 1450.39 Z" fill="#000000" fill-rule="evenodd" fill-opacity="1" /><path clip-path="url(#clip640)" d="M1002.95 1520.52 L1043.15 1520.52 L1043.15 1525.93 L1026.28 1525.93 L1026.28 1568.04 L1019.82 1568.04 L1019.82 1525.93 L1002.95 1525.93 L1002.95 1520.52 Z" fill="#000000" fill-rule="evenodd" fill-opacity="1" /><path clip-path="url(#clip640)" d="M1060.18 1537.87 Q1059.2 1537.3 1058.02 1537.04 Q1056.87 1536.76 1055.47 1536.76 Q1050.51 1536.76 1047.83 1540 Q1045.19 1543.22 1045.19 1549.27 L1045.19 1568.04 L1039.3 1568.04 L1039.3 1532.4 L1045.19 1532.4 L1045.19 1537.93 Q1047.04 1534.69 1050 1533.13 Q1052.96 1531.54 1057.19 1531.54 Q1057.8 1531.54 1058.53 1531.63 Q1059.26 1531.7 1060.15 1531.85 L1060.18 1537.87 Z" fill="#000000" fill-rule="evenodd" fill-opacity="1" /><path clip-path="url(#clip640)" d="M1082.53 1550.12 Q1075.43 1550.12 1072.69 1551.75 Q1069.95 1553.37 1069.95 1557.29 Q1069.95 1560.4 1071.99 1562.25 Q1074.06 1564.07 1077.59 1564.07 Q1082.46 1564.07 1085.39 1560.63 Q1088.35 1557.16 1088.35 1551.43 L1088.35 1550.12 L1082.53 1550.12 M1094.21 1547.71 L1094.21 1568.04 L1088.35 1568.04 L1088.35 1562.63 Q1086.35 1565.88 1083.35 1567.44 Q1080.36 1568.97 1076.03 1568.97 Q1070.56 1568.97 1067.31 1565.91 Q1064.1 1562.82 1064.1 1557.67 Q1064.1 1551.65 1068.11 1548.6 Q1072.15 1545.54 1080.14 1545.54 L1088.35 1545.54 L1088.35 1544.97 Q1088.35 1540.93 1085.68 1538.73 Q1083.04 1536.5 1078.23 1536.5 Q1075.17 1536.5 1072.28 1537.23 Q1069.38 1537.97 1066.71 1539.43 L1066.71 1534.02 Q1069.92 1532.78 1072.95 1532.17 Q1075.97 1531.54 1078.83 1531.54 Q1086.57 1531.54 1090.39 1535.55 Q1094.21 1539.56 1094.21 1547.71 Z" fill="#000000" fill-rule="evenodd" fill-opacity="1" /><path clip-path="url(#clip640)" d="M1106.27 1532.4 L1112.13 1532.4 L1112.13 1568.04 L1106.27 1568.04 L1106.27 1532.4 M1106.27 1518.52 L1112.13 1518.52 L1112.13 1525.93 L1106.27 1525.93 L1106.27 1518.52 Z" fill="#000000" fill-rule="evenodd" fill-opacity="1" /><path clip-path="url(#clip640)" d="M1154.01 1546.53 L1154.01 1568.04 L1148.16 1568.04 L1148.16 1546.72 Q1148.16 1541.66 1146.18 1539.14 Q1144.21 1536.63 1140.26 1536.63 Q1135.52 1536.63 1132.78 1539.65 Q1130.05 1542.68 1130.05 1547.9 L1130.05 1568.04 L1124.16 1568.04 L1124.16 1532.4 L1130.05 1532.4 L1130.05 1537.93 Q1132.15 1534.72 1134.98 1533.13 Q1137.84 1531.54 1141.57 1531.54 Q1147.71 1531.54 1150.86 1535.36 Q1154.01 1539.14 1154.01 1546.53 Z" fill="#000000" fill-rule="evenodd" fill-opacity="1" /><path clip-path="url(#clip640)" d="M1165.69 1532.4 L1171.55 1532.4 L1171.55 1568.04 L1165.69 1568.04 L1165.69 1532.4 M1165.69 1518.52 L1171.55 1518.52 L1171.55 1525.93 L1165.69 1525.93 L1165.69 1518.52 Z" fill="#000000" fill-rule="evenodd" fill-opacity="1" /><path clip-path="url(#clip640)" d="M1213.44 1546.53 L1213.44 1568.04 L1207.58 1568.04 L1207.58 1546.72 Q1207.58 1541.66 1205.61 1539.14 Q1203.63 1536.63 1199.69 1536.63 Q1194.94 1536.63 1192.21 1539.65 Q1189.47 1542.68 1189.47 1547.9 L1189.47 1568.04 L1183.58 1568.04 L1183.58 1532.4 L1189.47 1532.4 L1189.47 1537.93 Q1191.57 1534.72 1194.4 1533.13 Q1197.27 1531.54 1200.99 1531.54 Q1207.13 1531.54 1210.29 1535.36 Q1213.44 1539.14 1213.44 1546.53 Z" fill="#000000" fill-rule="evenodd" fill-opacity="1" /><path clip-path="url(#clip640)" d="M1248.58 1549.81 Q1248.58 1543.44 1245.93 1539.94 Q1243.32 1536.44 1238.58 1536.44 Q1233.87 1536.44 1231.23 1539.94 Q1228.62 1543.44 1228.62 1549.81 Q1228.62 1556.14 1231.23 1559.64 Q1233.87 1563.14 1238.58 1563.14 Q1243.32 1563.14 1245.93 1559.64 Q1248.58 1556.14 1248.58 1549.81 M1254.43 1563.62 Q1254.43 1572.72 1250.39 1577.15 Q1246.35 1581.6 1238.01 1581.6 Q1234.92 1581.6 1232.18 1581.13 Q1229.45 1580.68 1226.87 1579.72 L1226.87 1574.03 Q1229.45 1575.43 1231.96 1576.1 Q1234.48 1576.76 1237.09 1576.76 Q1242.85 1576.76 1245.71 1573.74 Q1248.58 1570.75 1248.58 1564.67 L1248.58 1561.77 Q1246.76 1564.92 1243.93 1566.48 Q1241.1 1568.04 1237.15 1568.04 Q1230.59 1568.04 1226.58 1563.05 Q1222.57 1558.05 1222.57 1549.81 Q1222.57 1541.53 1226.58 1536.53 Q1230.59 1531.54 1237.15 1531.54 Q1241.1 1531.54 1243.93 1533.1 Q1246.76 1534.66 1248.58 1537.81 L1248.58 1532.4 L1254.43 1532.4 L1254.43 1563.62 Z" fill="#000000" fill-rule="evenodd" fill-opacity="1" /><path clip-path="url(#clip640)" d="M1287.47 1520.52 L1293.9 1520.52 L1293.9 1568.04 L1287.47 1568.04 L1287.47 1520.52 Z" fill="#000000" fill-rule="evenodd" fill-opacity="1" /><path clip-path="url(#clip640)" d="M1312.23 1522.27 L1312.23 1532.4 L1324.3 1532.4 L1324.3 1536.95 L1312.23 1536.95 L1312.23 1556.3 Q1312.23 1560.66 1313.41 1561.9 Q1314.62 1563.14 1318.28 1563.14 L1324.3 1563.14 L1324.3 1568.04 L1318.28 1568.04 Q1311.5 1568.04 1308.92 1565.53 Q1306.34 1562.98 1306.34 1556.3 L1306.34 1536.95 L1302.05 1536.95 L1302.05 1532.4 L1306.34 1532.4 L1306.34 1522.27 L1312.23 1522.27 Z" fill="#000000" fill-rule="evenodd" fill-opacity="1" /><path clip-path="url(#clip640)" d="M1362.49 1548.76 L1362.49 1551.62 L1335.56 1551.62 Q1335.94 1557.67 1339.19 1560.85 Q1342.47 1564 1348.29 1564 Q1351.67 1564 1354.82 1563.17 Q1358 1562.35 1361.12 1560.69 L1361.12 1566.23 Q1357.97 1567.57 1354.66 1568.27 Q1351.35 1568.97 1347.94 1568.97 Q1339.41 1568.97 1334.42 1564 Q1329.45 1559.04 1329.45 1550.57 Q1329.45 1541.82 1334.16 1536.69 Q1338.9 1531.54 1346.93 1531.54 Q1354.12 1531.54 1358.29 1536.18 Q1362.49 1540.8 1362.49 1548.76 M1356.63 1547.04 Q1356.57 1542.23 1353.93 1539.37 Q1351.32 1536.5 1346.99 1536.5 Q1342.09 1536.5 1339.13 1539.27 Q1336.2 1542.04 1335.75 1547.07 L1356.63 1547.04 Z" fill="#000000" fill-rule="evenodd" fill-opacity="1" /><path clip-path="url(#clip640)" d="M1392.76 1537.87 Q1391.77 1537.3 1390.59 1537.04 Q1389.45 1536.76 1388.05 1536.76 Q1383.08 1536.76 1380.41 1540 Q1377.77 1543.22 1377.77 1549.27 L1377.77 1568.04 L1371.88 1568.04 L1371.88 1532.4 L1377.77 1532.4 L1377.77 1537.93 Q1379.61 1534.69 1382.57 1533.13 Q1385.53 1531.54 1389.77 1531.54 Q1390.37 1531.54 1391.1 1531.63 Q1391.84 1531.7 1392.73 1531.85 L1392.76 1537.87 Z" fill="#000000" fill-rule="evenodd" fill-opacity="1" /><path clip-path="url(#clip640)" d="M1415.1 1550.12 Q1408 1550.12 1405.27 1551.75 Q1402.53 1553.37 1402.53 1557.29 Q1402.53 1560.4 1404.57 1562.25 Q1406.64 1564.07 1410.17 1564.07 Q1415.04 1564.07 1417.97 1560.63 Q1420.93 1557.16 1420.93 1551.43 L1420.93 1550.12 L1415.1 1550.12 M1426.78 1547.71 L1426.78 1568.04 L1420.93 1568.04 L1420.93 1562.63 Q1418.92 1565.88 1415.93 1567.44 Q1412.94 1568.97 1408.61 1568.97 Q1403.13 1568.97 1399.89 1565.91 Q1396.67 1562.82 1396.67 1557.67 Q1396.67 1551.65 1400.68 1548.6 Q1404.73 1545.54 1412.72 1545.54 L1420.93 1545.54 L1420.93 1544.97 Q1420.93 1540.93 1418.25 1538.73 Q1415.61 1536.5 1410.81 1536.5 Q1407.75 1536.5 1404.85 1537.23 Q1401.96 1537.97 1399.28 1539.43 L1399.28 1534.02 Q1402.5 1532.78 1405.52 1532.17 Q1408.55 1531.54 1411.41 1531.54 Q1419.14 1531.54 1422.96 1535.55 Q1426.78 1539.56 1426.78 1547.71 Z" fill="#000000" fill-rule="evenodd" fill-opacity="1" /><path clip-path="url(#clip640)" d="M1444.64 1522.27 L1444.64 1532.4 L1456.7 1532.4 L1456.7 1536.95 L1444.64 1536.95 L1444.64 1556.3 Q1444.64 1560.66 1445.82 1561.9 Q1447.03 1563.14 1450.69 1563.14 L1456.7 1563.14 L1456.7 1568.04 L1450.69 1568.04 Q1443.91 1568.04 1441.33 1565.53 Q1438.75 1562.98 1438.75 1556.3 L1438.75 1536.95 L1434.45 1536.95 L1434.45 1532.4 L1438.75 1532.4 L1438.75 1522.27 L1444.64 1522.27 Z" fill="#000000" fill-rule="evenodd" fill-opacity="1" /><path clip-path="url(#clip640)" d="M1464.4 1532.4 L1470.26 1532.4 L1470.26 1568.04 L1464.4 1568.04 L1464.4 1532.4 M1464.4 1518.52 L1470.26 1518.52 L1470.26 1525.93 L1464.4 1525.93 L1464.4 1518.52 Z" fill="#000000" fill-rule="evenodd" fill-opacity="1" /><path clip-path="url(#clip640)" d="M1496.33 1536.5 Q1491.62 1536.5 1488.88 1540.19 Q1486.14 1543.85 1486.14 1550.25 Q1486.14 1556.65 1488.85 1560.34 Q1491.59 1564 1496.33 1564 Q1501.01 1564 1503.74 1560.31 Q1506.48 1556.62 1506.48 1550.25 Q1506.48 1543.92 1503.74 1540.23 Q1501.01 1536.5 1496.33 1536.5 M1496.33 1531.54 Q1503.97 1531.54 1508.33 1536.5 Q1512.69 1541.47 1512.69 1550.25 Q1512.69 1559 1508.33 1564 Q1503.97 1568.97 1496.33 1568.97 Q1488.66 1568.97 1484.3 1564 Q1479.97 1559 1479.97 1550.25 Q1479.97 1541.47 1484.3 1536.5 Q1488.66 1531.54 1496.33 1531.54 Z" fill="#000000" fill-rule="evenodd" fill-opacity="1" /><path clip-path="url(#clip640)" d="M1552.03 1546.53 L1552.03 1568.04 L1546.17 1568.04 L1546.17 1546.72 Q1546.17 1541.66 1544.2 1539.14 Q1542.23 1536.63 1538.28 1536.63 Q1533.54 1536.63 1530.8 1539.65 Q1528.06 1542.68 1528.06 1547.9 L1528.06 1568.04 L1522.17 1568.04 L1522.17 1532.4 L1528.06 1532.4 L1528.06 1537.93 Q1530.16 1534.72 1533 1533.13 Q1535.86 1531.54 1539.58 1531.54 Q1545.73 1531.54 1548.88 1535.36 Q1552.03 1539.14 1552.03 1546.53 Z" fill="#000000" fill-rule="evenodd" fill-opacity="1" /><polyline clip-path="url(#clip642)" style="stroke:#000000; stroke-linecap:butt; stroke-linejoin:round; stroke-width:2; stroke-opacity:0.1; fill:none" points="
  202.227,1214.87 2352.76,1214.87 
  "/>
<polyline clip-path="url(#clip642)" style="stroke:#000000; stroke-linecap:butt; stroke-linejoin:round; stroke-width:2; stroke-opacity:0.1; fill:none" points="
  202.227,906.168 2352.76,906.168 
  "/>
<polyline clip-path="url(#clip642)" style="stroke:#000000; stroke-linecap:butt; stroke-linejoin:round; stroke-width:2; stroke-opacity:0.1; fill:none" points="
  202.227,597.461 2352.76,597.461 
  "/>
<polyline clip-path="url(#clip642)" style="stroke:#000000; stroke-linecap:butt; stroke-linejoin:round; stroke-width:2; stroke-opacity:0.1; fill:none" points="
  202.227,288.754 2352.76,288.754 
  "/>
<polyline clip-path="url(#clip640)" style="stroke:#000000; stroke-linecap:butt; stroke-linejoin:round; stroke-width:4; stroke-opacity:1; fill:none" points="
  202.227,1423.18 202.227,123.472 
  "/>
<polyline clip-path="url(#clip640)" style="stroke:#000000; stroke-linecap:butt; stroke-linejoin:round; stroke-width:4; stroke-opacity:1; fill:none" points="
  202.227,1214.87 221.125,1214.87 
  "/>
<polyline clip-path="url(#clip640)" style="stroke:#000000; stroke-linecap:butt; stroke-linejoin:round; stroke-width:4; stroke-opacity:1; fill:none" points="
  202.227,906.168 221.125,906.168 
  "/>
<polyline clip-path="url(#clip640)" style="stroke:#000000; stroke-linecap:butt; stroke-linejoin:round; stroke-width:4; stroke-opacity:1; fill:none" points="
  202.227,597.461 221.125,597.461 
  "/>
<polyline clip-path="url(#clip640)" style="stroke:#000000; stroke-linecap:butt; stroke-linejoin:round; stroke-width:4; stroke-opacity:1; fill:none" points="
  202.227,288.754 221.125,288.754 
  "/>
<path clip-path="url(#clip640)" d="M156.644 1201.67 L144.839 1220.12 L156.644 1220.12 L156.644 1201.67 M155.417 1197.59 L161.297 1197.59 L161.297 1220.12 L166.227 1220.12 L166.227 1224.01 L161.297 1224.01 L161.297 1232.15 L156.644 1232.15 L156.644 1224.01 L141.042 1224.01 L141.042 1219.49 L155.417 1197.59 Z" fill="#000000" fill-rule="evenodd" fill-opacity="1" /><path clip-path="url(#clip640)" d="M154.7 904.304 Q151.552 904.304 149.7 906.457 Q147.871 908.61 147.871 912.36 Q147.871 916.087 149.7 918.263 Q151.552 920.415 154.7 920.415 Q157.848 920.415 159.677 918.263 Q161.528 916.087 161.528 912.36 Q161.528 908.61 159.677 906.457 Q157.848 904.304 154.7 904.304 M163.982 889.652 L163.982 893.911 Q162.223 893.078 160.417 892.638 Q158.635 892.198 156.876 892.198 Q152.246 892.198 149.792 895.323 Q147.362 898.448 147.015 904.767 Q148.38 902.753 150.441 901.689 Q152.501 900.601 154.978 900.601 Q160.186 900.601 163.195 903.772 Q166.227 906.92 166.227 912.36 Q166.227 917.684 163.079 920.901 Q159.931 924.119 154.7 924.119 Q148.704 924.119 145.533 919.536 Q142.362 914.929 142.362 906.202 Q142.362 898.008 146.251 893.147 Q150.14 888.263 156.69 888.263 Q158.45 888.263 160.232 888.61 Q162.038 888.957 163.982 889.652 Z" fill="#000000" fill-rule="evenodd" fill-opacity="1" /><path clip-path="url(#clip640)" d="M154.376 598.329 Q151.042 598.329 149.121 600.111 Q147.223 601.894 147.223 605.019 Q147.223 608.144 149.121 609.926 Q151.042 611.709 154.376 611.709 Q157.709 611.709 159.63 609.926 Q161.552 608.121 161.552 605.019 Q161.552 601.894 159.63 600.111 Q157.732 598.329 154.376 598.329 M149.7 596.338 Q146.691 595.598 145.001 593.537 Q143.334 591.477 143.334 588.514 Q143.334 584.371 146.274 581.963 Q149.237 579.556 154.376 579.556 Q159.538 579.556 162.477 581.963 Q165.417 584.371 165.417 588.514 Q165.417 591.477 163.727 593.537 Q162.061 595.598 159.075 596.338 Q162.454 597.125 164.329 599.417 Q166.227 601.709 166.227 605.019 Q166.227 610.042 163.149 612.727 Q160.093 615.412 154.376 615.412 Q148.658 615.412 145.579 612.727 Q142.524 610.042 142.524 605.019 Q142.524 601.709 144.422 599.417 Q146.32 597.125 149.7 596.338 M147.987 588.954 Q147.987 591.639 149.653 593.144 Q151.343 594.649 154.376 594.649 Q157.385 594.649 159.075 593.144 Q160.788 591.639 160.788 588.954 Q160.788 586.269 159.075 584.764 Q157.385 583.26 154.376 583.26 Q151.343 583.26 149.653 584.764 Q147.987 586.269 147.987 588.954 Z" fill="#000000" fill-rule="evenodd" fill-opacity="1" /><path clip-path="url(#clip640)" d="M114.931 302.099 L122.57 302.099 L122.57 275.734 L114.26 277.4 L114.26 273.141 L122.524 271.474 L127.2 271.474 L127.2 302.099 L134.839 302.099 L134.839 306.034 L114.931 306.034 L114.931 302.099 Z" fill="#000000" fill-rule="evenodd" fill-opacity="1" /><path clip-path="url(#clip640)" d="M154.283 274.553 Q150.672 274.553 148.843 278.118 Q147.038 281.659 147.038 288.789 Q147.038 295.895 148.843 299.46 Q150.672 303.002 154.283 303.002 Q157.917 303.002 159.723 299.46 Q161.552 295.895 161.552 288.789 Q161.552 281.659 159.723 278.118 Q157.917 274.553 154.283 274.553 M154.283 270.849 Q160.093 270.849 163.149 275.456 Q166.227 280.039 166.227 288.789 Q166.227 297.516 163.149 302.122 Q160.093 306.706 154.283 306.706 Q148.473 306.706 145.394 302.122 Q142.339 297.516 142.339 288.789 Q142.339 280.039 145.394 275.456 Q148.473 270.849 154.283 270.849 Z" fill="#000000" fill-rule="evenodd" fill-opacity="1" /><path clip-path="url(#clip640)" d="M18.0438 1024.29 L24.314 1024.29 Q22.5634 1027.95 21.704 1031.2 Q20.8447 1034.45 20.8447 1037.47 Q20.8447 1042.72 22.8817 1045.59 Q24.9187 1048.42 28.6745 1048.42 Q31.8255 1048.42 33.4488 1046.54 Q35.0402 1044.63 36.0269 1039.35 L36.8226 1035.47 Q38.1912 1028.27 41.6605 1024.87 Q45.098 1021.43 50.8908 1021.43 Q57.7976 1021.43 61.3624 1026.08 Q64.9272 1030.69 64.9272 1039.64 Q64.9272 1043.01 64.1633 1046.83 Q63.3994 1050.62 61.9035 1054.69 L55.2831 1054.69 Q57.4793 1050.78 58.5933 1047.02 Q59.7073 1043.26 59.7073 1039.64 Q59.7073 1034.13 57.543 1031.14 Q55.3786 1028.15 51.3682 1028.15 Q47.8671 1028.15 45.8937 1030.31 Q43.9204 1032.44 42.9337 1037.34 L42.1698 1041.26 Q40.7375 1048.45 37.682 1051.67 Q34.6264 1054.88 29.1837 1054.88 Q22.8817 1054.88 19.2532 1050.46 Q15.6248 1046 15.6248 1038.2 Q15.6248 1034.86 16.2295 1031.39 Q16.8343 1027.92 18.0438 1024.29 Z" fill="#000000" fill-rule="evenodd" fill-opacity="1" /><path clip-path="url(#clip640)" d="M18.0438 982.917 L24.314 982.917 Q22.5634 986.577 21.704 989.824 Q20.8447 993.07 20.8447 996.094 Q20.8447 1001.35 22.8817 1004.21 Q24.9187 1007.04 28.6745 1007.04 Q31.8255 1007.04 33.4488 1005.17 Q35.0402 1003.26 36.0269 997.972 L36.8226 994.089 Q38.1912 986.895 41.6605 983.49 Q45.098 980.052 50.8908 980.052 Q57.7976 980.052 61.3624 984.699 Q64.9272 989.314 64.9272 998.258 Q64.9272 1001.63 64.1633 1005.45 Q63.3994 1009.24 61.9035 1013.31 L55.2831 1013.31 Q57.4793 1009.4 58.5933 1005.64 Q59.7073 1001.89 59.7073 998.258 Q59.7073 992.752 57.543 989.76 Q55.3786 986.768 51.3682 986.768 Q47.8671 986.768 45.8937 988.932 Q43.9204 991.065 42.9337 995.967 L42.1698 999.881 Q40.7375 1007.07 37.682 1010.29 Q34.6264 1013.5 29.1837 1013.5 Q22.8817 1013.5 19.2532 1009.08 Q15.6248 1004.62 15.6248 996.826 Q15.6248 993.484 16.2295 990.015 Q16.8343 986.545 18.0438 982.917 Z" fill="#000000" fill-rule="evenodd" fill-opacity="1" /><path clip-path="url(#clip640)" d="M16.4842 970.026 L16.4842 939.98 L21.895 939.98 L21.895 963.597 L35.9632 963.597 L35.9632 940.967 L41.3741 940.967 L41.3741 963.597 L58.5933 963.597 L58.5933 939.407 L64.0042 939.407 L64.0042 970.026 L16.4842 970.026 Z" fill="#000000" fill-rule="evenodd" fill-opacity="1" /><path clip-path="url(#clip640)" d="M18.0438 879.633 L24.314 879.633 Q22.5634 883.294 21.704 886.54 Q20.8447 889.787 20.8447 892.81 Q20.8447 898.062 22.8817 900.927 Q24.9187 903.759 28.6745 903.759 Q31.8255 903.759 33.4488 901.881 Q35.0402 899.972 36.0269 894.688 L36.8226 890.805 Q38.1912 883.612 41.6605 880.206 Q45.098 876.769 50.8908 876.769 Q57.7976 876.769 61.3624 881.416 Q64.9272 886.031 64.9272 894.975 Q64.9272 898.348 64.1633 902.168 Q63.3994 905.955 61.9035 910.03 L55.2831 910.03 Q57.4793 906.115 58.5933 902.359 Q59.7073 898.603 59.7073 894.975 Q59.7073 889.468 57.543 886.476 Q55.3786 883.485 51.3682 883.485 Q47.8671 883.485 45.8937 885.649 Q43.9204 887.781 42.9337 892.683 L42.1698 896.598 Q40.7375 903.791 37.682 907.006 Q34.6264 910.221 29.1837 910.221 Q22.8817 910.221 19.2532 905.796 Q15.6248 901.34 15.6248 893.542 Q15.6248 890.2 16.2295 886.731 Q16.8343 883.262 18.0438 879.633 Z" fill="#000000" fill-rule="evenodd" fill-opacity="1" /><path clip-path="url(#clip640)" d="M18.2347 861.205 L28.3562 861.205 L28.3562 849.142 L32.9077 849.142 L32.9077 861.205 L52.2594 861.205 Q56.6199 861.205 57.8613 860.027 Q59.1026 858.817 59.1026 855.157 L59.1026 849.142 L64.0042 849.142 L64.0042 855.157 Q64.0042 861.937 61.4897 864.515 Q58.9434 867.093 52.2594 867.093 L32.9077 867.093 L32.9077 871.39 L28.3562 871.39 L28.3562 867.093 L18.2347 867.093 L18.2347 861.205 Z" fill="#000000" fill-rule="evenodd" fill-opacity="1" /><path clip-path="url(#clip640)" d="M33.8307 820.782 Q33.2578 821.769 33.0032 822.947 Q32.7167 824.092 32.7167 825.493 Q32.7167 830.458 35.9632 833.132 Q39.1779 835.774 45.2253 835.774 L64.0042 835.774 L64.0042 841.662 L28.3562 841.662 L28.3562 835.774 L33.8944 835.774 Q30.6479 833.928 29.0883 830.967 Q27.4968 828.007 27.4968 823.774 Q27.4968 823.169 27.5923 822.437 Q27.656 821.705 27.8151 820.814 L33.8307 820.782 Z" fill="#000000" fill-rule="evenodd" fill-opacity="1" /><path clip-path="url(#clip640)" d="M46.0847 798.439 Q46.0847 805.536 47.7079 808.274 Q49.3312 811.011 53.2461 811.011 Q56.3653 811.011 58.2114 808.974 Q60.0256 806.905 60.0256 803.372 Q60.0256 798.502 56.5881 795.574 Q53.1188 792.614 47.3897 792.614 L46.0847 792.614 L46.0847 798.439 M43.6657 786.758 L64.0042 786.758 L64.0042 792.614 L58.5933 792.614 Q61.8398 794.619 63.3994 797.611 Q64.9272 800.603 64.9272 804.932 Q64.9272 810.406 61.8716 813.653 Q58.7843 816.867 53.6281 816.867 Q47.6125 816.867 44.5569 812.857 Q41.5014 808.815 41.5014 800.826 L41.5014 792.614 L40.9285 792.614 Q36.8862 792.614 34.6901 795.288 Q32.4621 797.929 32.4621 802.736 Q32.4621 805.791 33.1941 808.687 Q33.9262 811.584 35.3903 814.257 L29.9795 814.257 Q28.7381 811.043 28.1334 808.019 Q27.4968 804.995 27.4968 802.131 Q27.4968 794.396 31.5072 790.577 Q35.5176 786.758 43.6657 786.758 Z" fill="#000000" fill-rule="evenodd" fill-opacity="1" /><path clip-path="url(#clip640)" d="M18.2347 768.902 L28.3562 768.902 L28.3562 756.839 L32.9077 756.839 L32.9077 768.902 L52.2594 768.902 Q56.6199 768.902 57.8613 767.724 Q59.1026 766.515 59.1026 762.854 L59.1026 756.839 L64.0042 756.839 L64.0042 762.854 Q64.0042 769.634 61.4897 772.212 Q58.9434 774.79 52.2594 774.79 L32.9077 774.79 L32.9077 779.087 L28.3562 779.087 L28.3562 774.79 L18.2347 774.79 L18.2347 768.902 Z" fill="#000000" fill-rule="evenodd" fill-opacity="1" /><path clip-path="url(#clip640)" d="M44.7161 718.645 L47.5806 718.645 L47.5806 745.572 Q53.6281 745.19 56.8109 741.943 Q59.9619 738.665 59.9619 732.84 Q59.9619 729.466 59.1344 726.315 Q58.3069 723.132 56.6518 720.013 L62.1899 720.013 Q63.5267 723.164 64.227 726.474 Q64.9272 729.785 64.9272 733.19 Q64.9272 741.72 59.9619 746.717 Q54.9967 751.683 46.5303 751.683 Q37.7774 751.683 32.6531 746.972 Q27.4968 742.23 27.4968 734.209 Q27.4968 727.015 32.1438 722.846 Q36.7589 718.645 44.7161 718.645 M42.9973 724.501 Q38.1912 724.565 35.3266 727.206 Q32.4621 729.816 32.4621 734.145 Q32.4621 739.047 35.2312 742.007 Q38.0002 744.935 43.0292 745.381 L42.9973 724.501 Z" fill="#000000" fill-rule="evenodd" fill-opacity="1" /><path clip-path="url(#clip640)" d="M45.7664 685.575 Q39.4007 685.575 35.8996 688.216 Q32.3984 690.826 32.3984 695.569 Q32.3984 700.28 35.8996 702.921 Q39.4007 705.531 45.7664 705.531 Q52.1003 705.531 55.6014 702.921 Q59.1026 700.28 59.1026 695.569 Q59.1026 690.826 55.6014 688.216 Q52.1003 685.575 45.7664 685.575 M59.58 679.718 Q68.683 679.718 73.1071 683.76 Q77.5631 687.803 77.5631 696.142 Q77.5631 699.229 77.0857 701.966 Q76.6401 704.704 75.6852 707.282 L69.9879 707.282 Q71.3884 704.704 72.0568 702.189 Q72.7252 699.675 72.7252 697.065 Q72.7252 691.304 69.7015 688.439 Q66.7096 685.575 60.6303 685.575 L57.7339 685.575 Q60.885 687.389 62.4446 690.222 Q64.0042 693.054 64.0042 697.001 Q64.0042 703.558 59.0071 707.568 Q54.01 711.579 45.7664 711.579 Q37.491 711.579 32.4939 707.568 Q27.4968 703.558 27.4968 697.001 Q27.4968 693.054 29.0564 690.222 Q30.616 687.389 33.7671 685.575 L28.3562 685.575 L28.3562 679.718 L59.58 679.718 Z" fill="#000000" fill-rule="evenodd" fill-opacity="1" /><path clip-path="url(#clip640)" d="M67.3143 652.823 Q73.68 655.306 75.6216 657.661 Q77.5631 660.016 77.5631 663.963 L77.5631 668.642 L72.6615 668.642 L72.6615 665.204 Q72.6615 662.785 71.5157 661.449 Q70.3699 660.112 66.1048 658.489 L63.4312 657.438 L28.3562 671.857 L28.3562 665.65 L56.238 654.51 L28.3562 643.37 L28.3562 637.164 L67.3143 652.823 Z" fill="#000000" fill-rule="evenodd" fill-opacity="1" /><path clip-path="url(#clip640)" d="M14.479 608.359 L14.479 602.502 L64.0042 602.502 L64.0042 608.359 L14.479 608.359 Z" fill="#000000" fill-rule="evenodd" fill-opacity="1" /><path clip-path="url(#clip640)" d="M32.4621 576.435 Q32.4621 581.145 36.1542 583.883 Q39.8145 586.62 46.212 586.62 Q52.6095 586.62 56.3017 583.914 Q59.9619 581.177 59.9619 576.435 Q59.9619 571.756 56.2698 569.019 Q52.5777 566.281 46.212 566.281 Q39.8781 566.281 36.186 569.019 Q32.4621 571.756 32.4621 576.435 M27.4968 576.435 Q27.4968 568.796 32.4621 564.435 Q37.4273 560.075 46.212 560.075 Q54.9649 560.075 59.9619 564.435 Q64.9272 568.796 64.9272 576.435 Q64.9272 584.105 59.9619 588.466 Q54.9649 592.795 46.212 592.795 Q37.4273 592.795 32.4621 588.466 Q27.4968 584.105 27.4968 576.435 Z" fill="#000000" fill-rule="evenodd" fill-opacity="1" /><path clip-path="url(#clip640)" d="M29.4065 527.642 L34.9447 527.642 Q33.6716 530.124 33.035 532.798 Q32.3984 535.471 32.3984 538.336 Q32.3984 542.696 33.7352 544.893 Q35.072 547.057 37.7456 547.057 Q39.7826 547.057 40.9603 545.497 Q42.1061 543.938 43.1565 539.227 L43.6021 537.222 Q44.9389 530.984 47.3897 528.374 Q49.8086 525.732 54.1691 525.732 Q59.1344 525.732 62.0308 529.679 Q64.9272 533.593 64.9272 540.468 Q64.9272 543.333 64.3543 546.452 Q63.8132 549.54 62.6992 552.977 L56.6518 552.977 Q58.3387 549.731 59.198 546.58 Q60.0256 543.428 60.0256 540.341 Q60.0256 536.203 58.6251 533.975 Q57.1929 531.747 54.6147 531.747 Q52.2276 531.747 50.9545 533.371 Q49.6813 534.962 48.5037 540.405 L48.0262 542.442 Q46.8804 547.884 44.5251 550.303 Q42.138 552.722 38.0002 552.722 Q32.9713 552.722 30.2341 549.158 Q27.4968 545.593 27.4968 539.036 Q27.4968 535.79 27.9743 532.925 Q28.4517 530.061 29.4065 527.642 Z" fill="#000000" fill-rule="evenodd" fill-opacity="1" /><path clip-path="url(#clip640)" d="M29.4065 493.68 L34.9447 493.68 Q33.6716 496.163 33.035 498.837 Q32.3984 501.51 32.3984 504.375 Q32.3984 508.735 33.7352 510.932 Q35.072 513.096 37.7456 513.096 Q39.7826 513.096 40.9603 511.536 Q42.1061 509.977 43.1565 505.266 L43.6021 503.261 Q44.9389 497.022 47.3897 494.413 Q49.8086 491.771 54.1691 491.771 Q59.1344 491.771 62.0308 495.718 Q64.9272 499.632 64.9272 506.507 Q64.9272 509.372 64.3543 512.491 Q63.8132 515.579 62.6992 519.016 L56.6518 519.016 Q58.3387 515.769 59.198 512.618 Q60.0256 509.467 60.0256 506.38 Q60.0256 502.242 58.6251 500.014 Q57.1929 497.786 54.6147 497.786 Q52.2276 497.786 50.9545 499.41 Q49.6813 501.001 48.5037 506.444 L48.0262 508.481 Q46.8804 513.923 44.5251 516.342 Q42.138 518.761 38.0002 518.761 Q32.9713 518.761 30.2341 515.197 Q27.4968 511.632 27.4968 505.075 Q27.4968 501.829 27.9743 498.964 Q28.4517 496.099 29.4065 493.68 Z" fill="#000000" fill-rule="evenodd" fill-opacity="1" /><path clip-path="url(#clip640)" d="M512.762 18.8205 L512.762 65.8515 L522.646 65.8515 Q535.163 65.8515 540.956 60.1802 Q546.79 54.509 546.79 42.2752 Q546.79 30.1225 540.956 24.4918 Q535.163 18.8205 522.646 18.8205 L512.762 18.8205 M504.579 12.096 L521.39 12.096 Q538.971 12.096 547.195 19.4281 Q555.418 26.7198 555.418 42.2752 Q555.418 57.9117 547.154 65.2439 Q538.89 72.576 521.39 72.576 L504.579 72.576 L504.579 12.096 Z" fill="#000000" fill-rule="evenodd" fill-opacity="1" /><path clip-path="url(#clip640)" d="M606.946 48.0275 L606.946 51.6733 L572.675 51.6733 Q573.161 59.3701 577.293 63.421 Q581.465 67.4314 588.878 67.4314 Q593.172 67.4314 597.183 66.3781 Q601.234 65.3249 605.204 63.2184 L605.204 70.267 Q601.193 71.9684 596.98 72.8596 Q592.767 73.7508 588.433 73.7508 Q577.576 73.7508 571.217 67.4314 Q564.897 61.1119 564.897 50.3365 Q564.897 39.1965 570.892 32.6746 Q576.928 26.1121 587.137 26.1121 Q596.292 26.1121 601.598 32.0264 Q606.946 37.9003 606.946 48.0275 M599.492 45.84 Q599.411 39.7232 596.049 36.0774 Q592.727 32.4315 587.218 32.4315 Q580.979 32.4315 577.212 35.9558 Q573.485 39.4801 572.918 45.8805 L599.492 45.84 Z" fill="#000000" fill-rule="evenodd" fill-opacity="1" /><path clip-path="url(#clip640)" d="M657.987 48.0275 L657.987 51.6733 L623.716 51.6733 Q624.202 59.3701 628.334 63.421 Q632.507 67.4314 639.92 67.4314 Q644.214 67.4314 648.224 66.3781 Q652.275 65.3249 656.245 63.2184 L656.245 70.267 Q652.235 71.9684 648.022 72.8596 Q643.809 73.7508 639.474 73.7508 Q628.618 73.7508 622.258 67.4314 Q615.939 61.1119 615.939 50.3365 Q615.939 39.1965 621.934 32.6746 Q627.97 26.1121 638.178 26.1121 Q647.333 26.1121 652.64 32.0264 Q657.987 37.9003 657.987 48.0275 M650.533 45.84 Q650.452 39.7232 647.09 36.0774 Q643.768 32.4315 638.259 32.4315 Q632.021 32.4315 628.253 35.9558 Q624.526 39.4801 623.959 45.8805 L650.533 45.84 Z" fill="#000000" fill-rule="evenodd" fill-opacity="1" /><path clip-path="url(#clip640)" d="M677.431 65.7705 L677.431 89.8329 L669.937 89.8329 L669.937 27.2059 L677.431 27.2059 L677.431 34.0924 Q679.781 30.0415 683.346 28.0971 Q686.951 26.1121 691.933 26.1121 Q700.197 26.1121 705.342 32.6746 Q710.527 39.2371 710.527 49.9314 Q710.527 60.6258 705.342 67.1883 Q700.197 73.7508 691.933 73.7508 Q686.951 73.7508 683.346 71.8063 Q679.781 69.8214 677.431 65.7705 M702.79 49.9314 Q702.79 41.7081 699.387 37.0496 Q696.025 32.3505 690.111 32.3505 Q684.196 32.3505 680.793 37.0496 Q677.431 41.7081 677.431 49.9314 Q677.431 58.1548 680.793 62.8538 Q684.196 67.5124 690.111 67.5124 Q696.025 67.5124 699.387 62.8538 Q702.79 58.1548 702.79 49.9314 Z" fill="#000000" fill-rule="evenodd" fill-opacity="1" /><path clip-path="url(#clip640)" d="M794.867 16.7545 L794.867 25.383 Q790.735 21.5346 786.036 19.6307 Q781.377 17.7268 776.111 17.7268 Q765.741 17.7268 760.232 24.0867 Q754.722 30.4061 754.722 42.3968 Q754.722 54.3469 760.232 60.7069 Q765.741 67.0263 776.111 67.0263 Q781.377 67.0263 786.036 65.1223 Q790.735 63.2184 794.867 59.3701 L794.867 67.9175 Q790.573 70.8341 785.752 72.2924 Q780.972 73.7508 775.625 73.7508 Q761.893 73.7508 753.993 65.3654 Q746.094 56.9395 746.094 42.3968 Q746.094 27.8135 753.993 19.4281 Q761.893 11.0023 775.625 11.0023 Q781.053 11.0023 785.833 12.4606 Q790.654 13.8784 794.867 16.7545 Z" fill="#000000" fill-rule="evenodd" fill-opacity="1" /><path clip-path="url(#clip640)" d="M807.506 12.096 L842.263 12.096 L842.263 18.9825 L815.689 18.9825 L815.689 36.8065 L839.67 36.8065 L839.67 43.6931 L815.689 43.6931 L815.689 72.576 L807.506 72.576 L807.506 12.096 Z" fill="#000000" fill-rule="evenodd" fill-opacity="1" /><path clip-path="url(#clip640)" d="M883.906 44.2197 Q886.539 45.1109 889.01 48.0275 Q891.522 50.9442 894.033 56.0483 L902.337 72.576 L893.547 72.576 L885.81 57.061 Q882.812 50.9847 879.976 48.9997 Q877.181 47.0148 872.32 47.0148 L863.408 47.0148 L863.408 72.576 L855.225 72.576 L855.225 12.096 L873.698 12.096 Q884.068 12.096 889.172 16.4305 Q894.276 20.7649 894.276 29.5149 Q894.276 35.2267 891.603 38.994 Q888.969 42.7613 883.906 44.2197 M863.408 18.8205 L863.408 40.2903 L873.698 40.2903 Q879.612 40.2903 882.61 37.5762 Q885.648 34.8216 885.648 29.5149 Q885.648 24.2082 882.61 21.5346 Q879.612 18.8205 873.698 18.8205 L863.408 18.8205 Z" fill="#000000" fill-rule="evenodd" fill-opacity="1" /><path clip-path="url(#clip640)" d="M946.29 14.324 L946.29 27.2059 L961.643 27.2059 L961.643 32.9987 L946.29 32.9987 L946.29 57.6282 Q946.29 63.1779 947.789 64.7578 Q949.328 66.3376 953.986 66.3376 L961.643 66.3376 L961.643 72.576 L953.986 72.576 Q945.358 72.576 942.077 69.3758 Q938.796 66.1351 938.796 57.6282 L938.796 32.9987 L933.327 32.9987 L933.327 27.2059 L938.796 27.2059 L938.796 14.324 L946.29 14.324 Z" fill="#000000" fill-rule="evenodd" fill-opacity="1" /><path clip-path="url(#clip640)" d="M997.736 34.1734 Q996.48 33.4443 994.982 33.1202 Q993.523 32.7556 991.741 32.7556 Q985.421 32.7556 982.019 36.8875 Q978.656 40.9789 978.656 48.6757 L978.656 72.576 L971.162 72.576 L971.162 27.2059 L978.656 27.2059 L978.656 34.2544 Q981.006 30.1225 984.773 28.1376 Q988.541 26.1121 993.928 26.1121 Q994.698 26.1121 995.63 26.2337 Q996.561 26.3147 997.696 26.5172 L997.736 34.1734 Z" fill="#000000" fill-rule="evenodd" fill-opacity="1" /><path clip-path="url(#clip640)" d="M1026.17 49.7694 Q1017.14 49.7694 1013.66 51.8354 Q1010.17 53.9013 1010.17 58.8839 Q1010.17 62.8538 1012.77 65.2034 Q1015.4 67.5124 1019.89 67.5124 Q1026.09 67.5124 1029.82 63.1374 Q1033.59 58.7219 1033.59 51.4303 L1033.59 49.7694 L1026.17 49.7694 M1041.04 46.6907 L1041.04 72.576 L1033.59 72.576 L1033.59 65.6895 Q1031.03 69.8214 1027.23 71.8063 Q1023.42 73.7508 1017.91 73.7508 Q1010.94 73.7508 1006.81 69.8619 Q1002.72 65.9325 1002.72 59.3701 Q1002.72 51.7138 1007.82 47.825 Q1012.97 43.9361 1023.14 43.9361 L1033.59 43.9361 L1033.59 43.2069 Q1033.59 38.0623 1030.18 35.2672 Q1026.82 32.4315 1020.7 32.4315 Q1016.82 32.4315 1013.13 33.3632 Q1009.44 34.295 1006.04 36.1584 L1006.04 29.2718 Q1010.13 27.692 1013.98 26.9223 Q1017.83 26.1121 1021.47 26.1121 Q1031.32 26.1121 1036.18 31.2163 Q1041.04 36.3204 1041.04 46.6907 Z" fill="#000000" fill-rule="evenodd" fill-opacity="1" /><path clip-path="url(#clip640)" d="M1056.39 27.2059 L1063.85 27.2059 L1063.85 72.576 L1056.39 72.576 L1056.39 27.2059 M1056.39 9.54393 L1063.85 9.54393 L1063.85 18.9825 L1056.39 18.9825 L1056.39 9.54393 Z" fill="#000000" fill-rule="evenodd" fill-opacity="1" /><path clip-path="url(#clip640)" d="M1117.16 45.1919 L1117.16 72.576 L1109.7 72.576 L1109.7 45.4349 Q1109.7 38.994 1107.19 35.7938 Q1104.68 32.5936 1099.66 32.5936 Q1093.62 32.5936 1090.14 36.4419 Q1086.65 40.2903 1086.65 46.9338 L1086.65 72.576 L1079.16 72.576 L1079.16 27.2059 L1086.65 27.2059 L1086.65 34.2544 Q1089.33 30.163 1092.93 28.1376 Q1096.58 26.1121 1101.32 26.1121 Q1109.14 26.1121 1113.15 30.9732 Q1117.16 35.7938 1117.16 45.1919 Z" fill="#000000" fill-rule="evenodd" fill-opacity="1" /><path clip-path="url(#clip640)" d="M1132.02 27.2059 L1139.48 27.2059 L1139.48 72.576 L1132.02 72.576 L1132.02 27.2059 M1132.02 9.54393 L1139.48 9.54393 L1139.48 18.9825 L1132.02 18.9825 L1132.02 9.54393 Z" fill="#000000" fill-rule="evenodd" fill-opacity="1" /><path clip-path="url(#clip640)" d="M1192.79 45.1919 L1192.79 72.576 L1185.33 72.576 L1185.33 45.4349 Q1185.33 38.994 1182.82 35.7938 Q1180.31 32.5936 1175.29 32.5936 Q1169.25 32.5936 1165.77 36.4419 Q1162.28 40.2903 1162.28 46.9338 L1162.28 72.576 L1154.79 72.576 L1154.79 27.2059 L1162.28 27.2059 L1162.28 34.2544 Q1164.96 30.163 1168.56 28.1376 Q1172.21 26.1121 1176.95 26.1121 Q1184.77 26.1121 1188.78 30.9732 Q1192.79 35.7938 1192.79 45.1919 Z" fill="#000000" fill-rule="evenodd" fill-opacity="1" /><path clip-path="url(#clip640)" d="M1237.51 49.3643 Q1237.51 41.2625 1234.15 36.8065 Q1230.83 32.3505 1224.79 32.3505 Q1218.79 32.3505 1215.43 36.8065 Q1212.11 41.2625 1212.11 49.3643 Q1212.11 57.4256 1215.43 61.8816 Q1218.79 66.3376 1224.79 66.3376 Q1230.83 66.3376 1234.15 61.8816 Q1237.51 57.4256 1237.51 49.3643 M1244.96 66.9452 Q1244.96 78.5308 1239.82 84.1616 Q1234.67 89.8329 1224.06 89.8329 Q1220.13 89.8329 1216.65 89.2252 Q1213.16 88.6581 1209.88 87.4428 L1209.88 80.1917 Q1213.16 81.9741 1216.36 82.8248 Q1219.56 83.6755 1222.89 83.6755 Q1230.22 83.6755 1233.86 79.8271 Q1237.51 76.0193 1237.51 68.282 L1237.51 64.5957 Q1235.2 68.6061 1231.59 70.5911 Q1227.99 72.576 1222.97 72.576 Q1214.62 72.576 1209.52 66.2161 Q1204.41 59.8562 1204.41 49.3643 Q1204.41 38.832 1209.52 32.472 Q1214.62 26.1121 1222.97 26.1121 Q1227.99 26.1121 1231.59 28.0971 Q1235.2 30.082 1237.51 34.0924 L1237.51 27.2059 L1244.96 27.2059 L1244.96 66.9452 Z" fill="#000000" fill-rule="evenodd" fill-opacity="1" /><path clip-path="url(#clip640)" d="M1293.9 65.7705 L1293.9 89.8329 L1286.4 89.8329 L1286.4 27.2059 L1293.9 27.2059 L1293.9 34.0924 Q1296.25 30.0415 1299.81 28.0971 Q1303.42 26.1121 1308.4 26.1121 Q1316.66 26.1121 1321.81 32.6746 Q1326.99 39.2371 1326.99 49.9314 Q1326.99 60.6258 1321.81 67.1883 Q1316.66 73.7508 1308.4 73.7508 Q1303.42 73.7508 1299.81 71.8063 Q1296.25 69.8214 1293.9 65.7705 M1319.26 49.9314 Q1319.26 41.7081 1315.85 37.0496 Q1312.49 32.3505 1306.58 32.3505 Q1300.66 32.3505 1297.26 37.0496 Q1293.9 41.7081 1293.9 49.9314 Q1293.9 58.1548 1297.26 62.8538 Q1300.66 67.5124 1306.58 67.5124 Q1312.49 67.5124 1315.85 62.8538 Q1319.26 58.1548 1319.26 49.9314 Z" fill="#000000" fill-rule="evenodd" fill-opacity="1" /><path clip-path="url(#clip640)" d="M1365.64 34.1734 Q1364.38 33.4443 1362.88 33.1202 Q1361.43 32.7556 1359.64 32.7556 Q1353.32 32.7556 1349.92 36.8875 Q1346.56 40.9789 1346.56 48.6757 L1346.56 72.576 L1339.07 72.576 L1339.07 27.2059 L1346.56 27.2059 L1346.56 34.2544 Q1348.91 30.1225 1352.68 28.1376 Q1356.44 26.1121 1361.83 26.1121 Q1362.6 26.1121 1363.53 26.2337 Q1364.46 26.3147 1365.6 26.5172 L1365.64 34.1734 Z" fill="#000000" fill-rule="evenodd" fill-opacity="1" /><path clip-path="url(#clip640)" d="M1389.22 32.4315 Q1383.22 32.4315 1379.74 37.1306 Q1376.25 41.7891 1376.25 49.9314 Q1376.25 58.0738 1379.7 62.7728 Q1383.18 67.4314 1389.22 67.4314 Q1395.17 67.4314 1398.65 62.7323 Q1402.14 58.0333 1402.14 49.9314 Q1402.14 41.8701 1398.65 37.1711 Q1395.17 32.4315 1389.22 32.4315 M1389.22 26.1121 Q1398.94 26.1121 1404.49 32.4315 Q1410.04 38.7509 1410.04 49.9314 Q1410.04 61.0714 1404.49 67.4314 Q1398.94 73.7508 1389.22 73.7508 Q1379.45 73.7508 1373.9 67.4314 Q1368.39 61.0714 1368.39 49.9314 Q1368.39 38.7509 1373.9 32.4315 Q1379.45 26.1121 1389.22 26.1121 Z" fill="#000000" fill-rule="evenodd" fill-opacity="1" /><path clip-path="url(#clip640)" d="M1452.25 49.3643 Q1452.25 41.2625 1448.89 36.8065 Q1445.56 32.3505 1439.53 32.3505 Q1433.53 32.3505 1430.17 36.8065 Q1426.85 41.2625 1426.85 49.3643 Q1426.85 57.4256 1430.17 61.8816 Q1433.53 66.3376 1439.53 66.3376 Q1445.56 66.3376 1448.89 61.8816 Q1452.25 57.4256 1452.25 49.3643 M1459.7 66.9452 Q1459.7 78.5308 1454.56 84.1616 Q1449.41 89.8329 1438.8 89.8329 Q1434.87 89.8329 1431.39 89.2252 Q1427.9 88.6581 1424.62 87.4428 L1424.62 80.1917 Q1427.9 81.9741 1431.1 82.8248 Q1434.3 83.6755 1437.62 83.6755 Q1444.96 83.6755 1448.6 79.8271 Q1452.25 76.0193 1452.25 68.282 L1452.25 64.5957 Q1449.94 68.6061 1446.33 70.5911 Q1442.73 72.576 1437.7 72.576 Q1429.36 72.576 1424.26 66.2161 Q1419.15 59.8562 1419.15 49.3643 Q1419.15 38.832 1424.26 32.472 Q1429.36 26.1121 1437.7 26.1121 Q1442.73 26.1121 1446.33 28.0971 Q1449.94 30.082 1452.25 34.0924 L1452.25 27.2059 L1459.7 27.2059 L1459.7 66.9452 Z" fill="#000000" fill-rule="evenodd" fill-opacity="1" /><path clip-path="url(#clip640)" d="M1501.34 34.1734 Q1500.09 33.4443 1498.59 33.1202 Q1497.13 32.7556 1495.35 32.7556 Q1489.03 32.7556 1485.63 36.8875 Q1482.26 40.9789 1482.26 48.6757 L1482.26 72.576 L1474.77 72.576 L1474.77 27.2059 L1482.26 27.2059 L1482.26 34.2544 Q1484.61 30.1225 1488.38 28.1376 Q1492.15 26.1121 1497.54 26.1121 Q1498.31 26.1121 1499.24 26.2337 Q1500.17 26.3147 1501.3 26.5172 L1501.34 34.1734 Z" fill="#000000" fill-rule="evenodd" fill-opacity="1" /><path clip-path="url(#clip640)" d="M1546.15 48.0275 L1546.15 51.6733 L1511.88 51.6733 Q1512.36 59.3701 1516.5 63.421 Q1520.67 67.4314 1528.08 67.4314 Q1532.37 67.4314 1536.38 66.3781 Q1540.44 65.3249 1544.41 63.2184 L1544.41 70.267 Q1540.4 71.9684 1536.18 72.8596 Q1531.97 73.7508 1527.64 73.7508 Q1516.78 73.7508 1510.42 67.4314 Q1504.1 61.1119 1504.1 50.3365 Q1504.1 39.1965 1510.09 32.6746 Q1516.13 26.1121 1526.34 26.1121 Q1535.49 26.1121 1540.8 32.0264 Q1546.15 37.9003 1546.15 48.0275 M1538.69 45.84 Q1538.61 39.7232 1535.25 36.0774 Q1531.93 32.4315 1526.42 32.4315 Q1520.18 32.4315 1516.41 35.9558 Q1512.69 39.4801 1512.12 45.8805 L1538.69 45.84 Z" fill="#000000" fill-rule="evenodd" fill-opacity="1" /><path clip-path="url(#clip640)" d="M1587.3 28.5427 L1587.3 35.5912 Q1584.15 33.9709 1580.74 33.1607 Q1577.34 32.3505 1573.69 32.3505 Q1568.14 32.3505 1565.35 34.0519 Q1562.59 35.7533 1562.59 39.156 Q1562.59 41.7486 1564.58 43.2475 Q1566.56 44.7058 1572.56 46.0426 L1575.11 46.6097 Q1583.05 48.3111 1586.37 51.4303 Q1589.74 54.509 1589.74 60.0587 Q1589.74 66.3781 1584.71 70.0644 Q1579.73 73.7508 1570.98 73.7508 Q1567.33 73.7508 1563.36 73.0216 Q1559.43 72.3329 1555.06 70.9151 L1555.06 63.2184 Q1559.19 65.3654 1563.2 66.4591 Q1567.21 67.5124 1571.14 67.5124 Q1576.41 67.5124 1579.24 65.73 Q1582.08 63.9071 1582.08 60.6258 Q1582.08 57.5877 1580.01 55.9673 Q1577.99 54.3469 1571.06 52.8481 L1568.47 52.2405 Q1561.54 50.7821 1558.46 47.7845 Q1555.38 44.7463 1555.38 39.4801 Q1555.38 33.0797 1559.92 29.5959 Q1564.46 26.1121 1572.8 26.1121 Q1576.93 26.1121 1580.58 26.7198 Q1584.23 27.3274 1587.3 28.5427 Z" fill="#000000" fill-rule="evenodd" fill-opacity="1" /><path clip-path="url(#clip640)" d="M1630.53 28.5427 L1630.53 35.5912 Q1627.37 33.9709 1623.97 33.1607 Q1620.56 32.3505 1616.92 32.3505 Q1611.37 32.3505 1608.57 34.0519 Q1605.82 35.7533 1605.82 39.156 Q1605.82 41.7486 1607.8 43.2475 Q1609.79 44.7058 1615.78 46.0426 L1618.33 46.6097 Q1626.27 48.3111 1629.6 51.4303 Q1632.96 54.509 1632.96 60.0587 Q1632.96 66.3781 1627.94 70.0644 Q1622.95 73.7508 1614.2 73.7508 Q1610.56 73.7508 1606.59 73.0216 Q1602.66 72.3329 1598.28 70.9151 L1598.28 63.2184 Q1602.41 65.3654 1606.43 66.4591 Q1610.44 67.5124 1614.36 67.5124 Q1619.63 67.5124 1622.47 65.73 Q1625.3 63.9071 1625.3 60.6258 Q1625.3 57.5877 1623.24 55.9673 Q1621.21 54.3469 1614.28 52.8481 L1611.69 52.2405 Q1604.76 50.7821 1601.69 47.7845 Q1598.61 44.7463 1598.61 39.4801 Q1598.61 33.0797 1603.14 29.5959 Q1607.68 26.1121 1616.03 26.1121 Q1620.16 26.1121 1623.8 26.7198 Q1627.45 27.3274 1630.53 28.5427 Z" fill="#000000" fill-rule="evenodd" fill-opacity="1" /><path clip-path="url(#clip640)" d="M1689.1 9.62495 Q1683.68 18.942 1681.04 28.0566 Q1678.41 37.1711 1678.41 46.5287 Q1678.41 55.8863 1681.04 65.0818 Q1683.72 74.2369 1689.1 83.5134 L1682.62 83.5134 Q1676.55 73.9938 1673.51 64.7983 Q1670.51 55.6027 1670.51 46.5287 Q1670.51 37.4952 1673.51 28.3401 Q1676.51 19.1851 1682.62 9.62495 L1689.1 9.62495 Z" fill="#000000" fill-rule="evenodd" fill-opacity="1" /><path clip-path="url(#clip640)" d="M1745.13 63.9476 L1745.13 47.7034 L1731.76 47.7034 L1731.76 40.9789 L1753.23 40.9789 L1753.23 66.9452 Q1748.49 70.3075 1742.78 72.0494 Q1737.07 73.7508 1730.59 73.7508 Q1716.41 73.7508 1708.39 65.4869 Q1700.41 57.1826 1700.41 42.3968 Q1700.41 27.5705 1708.39 19.3066 Q1716.41 11.0023 1730.59 11.0023 Q1736.5 11.0023 1741.81 12.4606 Q1747.15 13.9189 1751.65 16.7545 L1751.65 25.464 Q1747.11 21.6156 1742.01 19.6712 Q1736.9 17.7268 1731.27 17.7268 Q1720.17 17.7268 1714.58 23.9246 Q1709.03 30.1225 1709.03 42.3968 Q1709.03 54.6305 1714.58 60.8284 Q1720.17 67.0263 1731.27 67.0263 Q1735.61 67.0263 1739.01 66.2971 Q1742.41 65.5274 1745.13 63.9476 Z" fill="#000000" fill-rule="evenodd" fill-opacity="1" /><path clip-path="url(#clip640)" d="M1813.47 16.7545 L1813.47 25.383 Q1809.33 21.5346 1804.64 19.6307 Q1799.98 17.7268 1794.71 17.7268 Q1784.34 17.7268 1778.83 24.0867 Q1773.32 30.4061 1773.32 42.3968 Q1773.32 54.3469 1778.83 60.7069 Q1784.34 67.0263 1794.71 67.0263 Q1799.98 67.0263 1804.64 65.1223 Q1809.33 63.2184 1813.47 59.3701 L1813.47 67.9175 Q1809.17 70.8341 1804.35 72.2924 Q1799.57 73.7508 1794.23 73.7508 Q1780.49 73.7508 1772.59 65.3654 Q1764.69 56.9395 1764.69 42.3968 Q1764.69 27.8135 1772.59 19.4281 Q1780.49 11.0023 1794.23 11.0023 Q1799.65 11.0023 1804.43 12.4606 Q1809.25 13.8784 1813.47 16.7545 Z" fill="#000000" fill-rule="evenodd" fill-opacity="1" /><path clip-path="url(#clip640)" d="M1888.73 14.0809 L1888.73 22.0612 Q1884.07 19.8332 1879.94 18.7395 Q1875.81 17.6457 1871.96 17.6457 Q1865.28 17.6457 1861.63 20.2383 Q1858.03 22.8309 1858.03 27.611 Q1858.03 31.6214 1860.42 33.6873 Q1862.85 35.7128 1869.57 36.9686 L1874.51 37.9813 Q1883.67 39.7232 1888 44.1387 Q1892.38 48.5136 1892.38 55.8863 Q1892.38 64.6767 1886.46 69.2137 Q1880.59 73.7508 1869.21 73.7508 Q1864.91 73.7508 1860.05 72.7785 Q1855.23 71.8063 1850.05 69.9024 L1850.05 61.4765 Q1855.03 64.2716 1859.81 65.6895 Q1864.59 67.1073 1869.21 67.1073 Q1876.22 67.1073 1880.02 64.3527 Q1883.83 61.598 1883.83 56.4939 Q1883.83 52.0379 1881.08 49.5264 Q1878.36 47.0148 1872.12 45.759 L1867.14 44.7868 Q1857.99 42.9639 1853.89 39.075 Q1849.8 35.1862 1849.8 28.2591 Q1849.8 20.2383 1855.43 15.6203 Q1861.11 11.0023 1871.03 11.0023 Q1875.28 11.0023 1879.7 11.7719 Q1884.11 12.5416 1888.73 14.0809 Z" fill="#000000" fill-rule="evenodd" fill-opacity="1" /><path clip-path="url(#clip640)" d="M1946.38 63.9476 L1946.38 47.7034 L1933.01 47.7034 L1933.01 40.9789 L1954.48 40.9789 L1954.48 66.9452 Q1949.74 70.3075 1944.03 72.0494 Q1938.32 73.7508 1931.83 73.7508 Q1917.66 73.7508 1909.64 65.4869 Q1901.66 57.1826 1901.66 42.3968 Q1901.66 27.5705 1909.64 19.3066 Q1917.66 11.0023 1931.83 11.0023 Q1937.75 11.0023 1943.06 12.4606 Q1948.4 13.9189 1952.9 16.7545 L1952.9 25.464 Q1948.36 21.6156 1943.26 19.6712 Q1938.15 17.7268 1932.52 17.7268 Q1921.42 17.7268 1915.83 23.9246 Q1910.28 30.1225 1910.28 42.3968 Q1910.28 54.6305 1915.83 60.8284 Q1921.42 67.0263 1932.52 67.0263 Q1936.86 67.0263 1940.26 66.2971 Q1943.66 65.5274 1946.38 63.9476 Z" fill="#000000" fill-rule="evenodd" fill-opacity="1" /><path clip-path="url(#clip640)" d="M1977.61 18.8205 L1977.61 65.8515 L1987.49 65.8515 Q2000.01 65.8515 2005.8 60.1802 Q2011.64 54.509 2011.64 42.2752 Q2011.64 30.1225 2005.8 24.4918 Q2000.01 18.8205 1987.49 18.8205 L1977.61 18.8205 M1969.43 12.096 L1986.24 12.096 Q2003.82 12.096 2012.04 19.4281 Q2020.27 26.7198 2020.27 42.2752 Q2020.27 57.9117 2012 65.2439 Q2003.74 72.576 1986.24 72.576 L1969.43 72.576 L1969.43 12.096 Z" fill="#000000" fill-rule="evenodd" fill-opacity="1" /><path clip-path="url(#clip640)" d="M2031.81 9.62495 L2038.29 9.62495 Q2044.37 19.1851 2047.37 28.3401 Q2050.4 37.4952 2050.4 46.5287 Q2050.4 55.6027 2047.37 64.7983 Q2044.37 73.9938 2038.29 83.5134 L2031.81 83.5134 Q2037.2 74.2369 2039.83 65.0818 Q2042.5 55.8863 2042.5 46.5287 Q2042.5 37.1711 2039.83 28.0566 Q2037.2 18.942 2031.81 9.62495 Z" fill="#000000" fill-rule="evenodd" fill-opacity="1" /><polyline clip-path="url(#clip642)" style="stroke:#009af9; stroke-linecap:butt; stroke-linejoin:round; stroke-width:4; stroke-opacity:1; fill:none" points="
  263.091,928.04 267.157,1199.05 271.223,334.79 275.289,317.754 279.354,747.287 283.42,1028.82 287.486,315.841 291.552,1104.25 295.617,1048.22 299.683,913.077 
  303.749,449.068 307.815,890.236 311.88,928.584 315.946,884.075 320.012,1016.37 324.077,983.791 328.143,1067.31 332.209,1148.12 336.275,1120.31 340.34,913.328 
  344.406,972.412 348.472,950.677 352.538,340.924 356.603,818.858 360.669,677.183 364.735,833.47 368.801,581.552 372.866,991.289 376.932,1121.62 380.998,1265.42 
  385.063,876.82 389.129,1082.89 393.195,1148.5 397.261,938.229 401.326,1115.03 405.392,1108.54 409.458,815.127 413.524,904.945 417.589,670.946 421.655,1231.39 
  425.721,846.38 429.787,883.705 433.852,321.385 437.918,805.163 441.984,445.369 446.049,1113.37 450.115,312.592 454.181,1115.7 458.247,517.041 462.312,1089.53 
  466.378,1133.14 470.444,366.624 474.51,525.384 478.575,860.623 482.641,861.784 486.707,495.945 490.772,821.27 494.838,314.95 498.904,1196.85 502.97,1187.99 
  507.035,1025.51 511.101,1104.83 515.167,619.93 519.233,794.524 523.298,1187.65 527.364,493.615 531.43,972.303 535.496,948.633 539.561,729.276 543.627,509.158 
  547.693,937.269 551.758,823.153 555.824,932.002 559.89,666.284 563.956,1116.2 568.021,426.361 572.087,793.335 576.153,330.644 580.219,337.182 584.284,951.337 
  588.35,914.921 592.416,849.863 596.482,1115.82 600.547,859.635 604.613,1069.94 608.679,530.147 612.744,925.133 616.81,797.747 620.876,1072.47 624.942,775.243 
  629.007,473.073 633.073,331.209 637.139,679.915 641.205,930.875 645.27,391.78 649.336,1163.12 653.402,436.125 657.468,968.479 661.533,978.764 665.599,922.483 
  669.665,907.629 673.73,451.766 677.796,984.158 681.862,636.888 685.928,967.834 689.993,495.885 694.059,687.499 698.125,465.847 702.191,382.301 706.256,756.902 
  710.322,1150.5 714.388,1065 718.453,313.027 722.519,931.149 726.585,463.023 730.651,1386.4 734.716,304.636 738.782,1150.06 742.848,958.956 746.914,417.229 
  750.979,314.923 755.045,1100.06 759.111,920.807 763.177,403.057 767.242,771.939 771.308,712.024 775.374,983.793 779.439,924.818 783.505,320.239 787.571,940.562 
  791.637,412.768 795.702,870.086 799.768,808.067 803.834,935.899 807.9,993.217 811.965,404.025 816.031,718.781 820.097,1071.27 824.163,822.767 828.228,928.787 
  832.294,990.494 836.36,701.468 840.425,910.543 844.491,953.557 848.557,582.098 852.623,674.284 856.688,953.967 860.754,326.425 864.82,835.108 868.886,768.691 
  872.951,811.084 877.017,621.598 881.083,464.537 885.149,1015.57 889.214,927.993 893.28,540.066 897.346,1022.57 901.411,560.203 905.477,285.37 909.543,341.722 
  913.609,821.203 917.674,941.623 921.74,1156.53 925.806,935.109 929.872,1211.81 933.937,1121.45 938.003,953.591 942.069,852.159 946.135,957.48 950.2,354.564 
  954.266,314.519 958.332,1062.32 962.397,474.955 966.463,1014.37 970.529,926.196 974.595,1121.21 978.66,737.249 982.726,389.728 986.792,239.589 990.858,957.593 
  994.923,974.927 998.989,854.124 1003.05,835.175 1007.12,931.682 1011.19,876.987 1015.25,692.119 1019.32,968.672 1023.38,750.467 1027.45,795.828 1031.51,880.342 
  1035.58,1000.93 1039.65,269.056 1043.71,591.05 1047.78,866.262 1051.84,1158.48 1055.91,1073.89 1059.98,855.115 1064.04,896.241 1068.11,841.37 1072.17,632.357 
  1076.24,923.277 1080.3,568.281 1084.37,813.821 1088.44,817.494 1092.5,383.716 1096.57,1061.48 1100.63,898.597 1104.7,327.72 1108.76,866.126 1112.83,918.627 
  1116.9,1116.33 1120.96,907.202 1125.03,868.503 1129.09,805.312 1133.16,945.832 1137.22,942.376 1141.29,829.65 1145.36,875.883 1149.42,661.557 1153.49,330.473 
  1157.55,975.313 1161.62,313.542 1165.68,1014.65 1169.75,590.381 1173.82,981.811 1177.88,698.355 1181.95,921.687 1186.01,723.132 1190.08,1035.69 1194.14,888.199 
  1198.21,936.925 1202.28,931.596 1206.34,932.853 1210.41,1234.03 1214.47,393.731 1218.54,1115.86 1222.6,911.154 1226.67,954.106 1230.74,917.953 1234.8,953.94 
  1238.87,722.631 1242.93,766.946 1247,866.002 1251.06,971.237 1255.13,818.492 1259.2,896.754 1263.26,976.871 1267.33,664.361 1271.39,1031.47 1275.46,942.506 
  1279.52,1041.86 1283.59,767.633 1287.66,1111.35 1291.72,997.232 1295.79,927.009 1299.85,927.241 1303.92,928.193 1307.98,961.386 1312.05,583.093 1316.12,709.419 
  1320.18,938.826 1324.25,922.666 1328.31,314.741 1332.38,833.624 1336.44,1194.56 1340.51,908.005 1344.58,944.799 1348.64,1012.89 1352.71,956.542 1356.77,775.694 
  1360.84,483.591 1364.9,685.295 1368.97,926.577 1373.04,795.593 1377.1,319.35 1381.17,1117 1385.23,1145.12 1389.3,957.43 1393.37,422.748 1397.43,911.384 
  1401.5,814.945 1405.56,350.289 1409.63,903.05 1413.69,536.392 1417.76,820.704 1421.83,938.979 1425.89,1206.5 1429.96,797.001 1434.02,969.11 1438.09,802.27 
  1442.15,960.319 1446.22,961.352 1450.29,741.067 1454.35,387.596 1458.42,956.5 1462.48,282.807 1466.55,997.192 1470.61,948.479 1474.68,906.926 1478.75,980.654 
  1482.81,991.965 1486.88,337.596 1490.94,396.622 1495.01,931.006 1499.07,887.005 1503.14,957.116 1507.21,476.825 1511.27,1086.01 1515.34,1254.2 1519.4,932.403 
  1523.47,287.904 1527.53,923.118 1531.6,920.285 1535.67,1067.03 1539.73,380.233 1543.8,918.29 1547.86,999.865 1551.93,934.957 1555.99,1150.75 1560.06,857.45 
  1564.13,1057.59 1568.19,1015.73 1572.26,954.135 1576.32,856 1580.39,835.957 1584.45,832.326 1588.52,406.45 1592.59,788.481 1596.65,581.804 1600.72,811.612 
  1604.78,234.724 1608.85,816.591 1612.91,414.797 1616.98,788.374 1621.05,709.255 1625.11,286.918 1629.18,916.474 1633.24,722.749 1637.31,529.957 1641.37,1121.7 
  1645.44,861.412 1649.51,790.214 1653.57,411.478 1657.64,1090.87 1661.7,647.158 1665.77,849.513 1669.83,476.272 1673.9,905.468 1677.97,809.314 1682.03,511.557 
  1686.1,557.918 1690.16,1005.75 1694.23,340.07 1698.29,383.695 1702.36,1016.09 1706.43,720.507 1710.49,968.061 1714.56,699.555 1718.62,935.743 1722.69,901.071 
  1726.76,977.028 1730.82,929.489 1734.89,933.684 1738.95,1018.9 1743.02,743.039 1747.08,368.436 1751.15,949.42 1755.22,940.927 1759.28,430.887 1763.35,1067.75 
  1767.41,403.9 1771.48,980.93 1775.54,913.719 1779.61,690.965 1783.68,501.682 1787.74,890.217 1791.81,966.27 1795.87,761.86 1799.94,260.883 1804,416.233 
  1808.07,298.108 1812.14,703.579 1816.2,928.112 1820.27,362.309 1824.33,691.067 1828.4,367.232 1832.46,688.284 1836.53,720.132 1840.6,828.15 1844.66,382.954 
  1848.73,897.484 1852.79,917.169 1856.86,860.177 1860.92,631.446 1864.99,978.848 1869.06,337.666 1873.12,739.226 1877.19,311.979 1881.25,321.624 1885.32,566.856 
  1889.38,442.749 1893.45,716.563 1897.52,580.024 1901.58,799.771 1905.65,543.589 1909.71,867.051 1913.78,885.839 1917.84,964.85 1921.91,160.256 1925.98,721.745 
  1930.04,1056.75 1934.11,882.048 1938.17,894.155 1942.24,988.564 1946.3,923.213 1950.37,1145.92 1954.44,937.541 1958.5,801.035 1962.57,1110 1966.63,650.425 
  1970.7,946.368 1974.76,482.447 1978.83,541.312 1982.9,973.994 1986.96,358.616 1991.03,914.133 1995.09,1086.74 1999.16,586.4 2003.22,944.525 2007.29,834.285 
  2011.36,452.66 2015.42,427.8 2019.49,574.723 2023.55,528.25 2027.62,976.066 2031.69,907.663 2035.75,602.078 2039.82,681.86 2043.88,931.364 2047.95,601.161 
  2052.01,952.054 2056.08,912.527 2060.15,516.255 2064.21,554.174 2068.28,939.244 2072.34,546.971 2076.41,319.214 2080.47,1121.72 2084.54,743.255 2088.61,365.901 
  2092.67,578.195 2096.74,688.773 2100.8,741.861 2104.87,1042.15 2108.93,879.568 2113,886.911 2117.07,371.101 2121.13,1041.17 2125.2,1039.46 2129.26,534.373 
  2133.33,806.228 2137.39,940.11 2141.46,435.066 2145.53,923.556 2149.59,634.05 2153.66,942.878 2157.72,780.508 2161.79,881.697 2165.85,746.858 2169.92,596.147 
  2173.99,831.078 2178.05,887.702 2182.12,723.326 2186.18,581.701 2190.25,967.679 2194.31,647.569 2198.38,805.157 2202.45,256.187 2206.51,1076.56 2210.58,931.624 
  2214.64,777.793 2218.71,934.378 2222.77,441.57 2226.84,947.921 2230.91,494.405 2234.97,1058.73 2239.04,1000.63 2243.1,371.37 2247.17,919.536 2251.23,530.7 
  2255.3,841.797 2259.37,272.517 2263.43,677.152 2267.5,393.354 2271.56,841.458 2275.63,761.327 2279.69,1201.58 2283.76,902.18 2287.83,978.714 2291.89,917.927 
  
  "/>
</svg>
